<svg width="80" height="80" viewBox="0 0 80 80" fill="none" xmlns="http://www.w3.org/2000/svg">
<circle cx="40" cy="40" r="40" fill="#D1ECFD"/>
<g clip-path="url(#clip0_7_5249)">
<path d="M45.9994 64C45.2438 64 44.61 63.744 44.098 63.232C43.586 62.72 43.3309 62.0871 43.3327 61.3333C43.3327 60.5778 43.5887 59.944 44.1007 59.432C44.6127 58.92 45.2456 58.6649 45.9994 58.6667C48.0883 58.6667 49.9434 58.2551 51.5647 57.432C53.1861 56.6089 53.9976 55.6871 53.9994 54.6667C53.9994 54.0444 53.7105 53.4667 53.1327 52.9333C52.5549 52.4 51.7549 51.9111 50.7327 51.4667L54.6661 47.5333C56.0883 48.3778 57.2216 49.3778 58.0661 50.5333C58.9105 51.6889 59.3327 53.0667 59.3327 54.6667C59.3327 57.6 57.9327 59.8889 55.1327 61.5333C52.3327 63.1778 49.2883 64 45.9994 64ZM20.866 43.6C19.5771 42.8444 18.5549 41.9671 17.7994 40.968C17.0438 39.9689 16.666 38.7573 16.666 37.3333C16.666 35.4667 17.3549 33.8996 18.7327 32.632C20.1105 31.3644 22.5771 29.9538 26.1327 28.4C28.9327 27.1111 30.722 26.2116 31.5007 25.7013C32.2794 25.1911 32.6678 24.624 32.666 24C32.666 23.2889 32.2323 22.6667 31.3647 22.1333C30.4971 21.6 29.1531 21.3333 27.3327 21.3333C26.2216 21.3333 25.2882 21.4667 24.5327 21.7333C23.7771 22 23.0882 22.4444 22.466 23.0667C21.9771 23.5556 21.3771 23.8444 20.666 23.9333C19.9549 24.0222 19.3105 23.8222 18.7327 23.3333C18.1549 22.8889 17.8216 22.3111 17.7327 21.6C17.6438 20.8889 17.8438 20.2444 18.3327 19.6667C19.1771 18.6444 20.3887 17.7778 21.9674 17.0667C23.546 16.3556 25.3345 16 27.3327 16C30.5327 16 33.1105 16.7227 35.066 18.168C37.0216 19.6133 37.9994 21.5573 37.9994 24C37.9994 25.7333 37.3549 27.2889 36.066 28.6667C34.7771 30.0444 32.1771 31.5778 28.266 33.2667C25.6882 34.3778 23.9994 35.2 23.1994 35.7333C22.3994 36.2667 21.9994 36.8 21.9994 37.3333C21.9994 37.7333 22.2545 38.1227 22.7647 38.5013C23.2749 38.88 23.9754 39.2462 24.866 39.6L20.866 43.6ZM58.9327 35.7333L47.5994 24.4L50.3994 21.6C51.4661 20.5333 52.7443 20 54.2341 20C55.7238 20 56.9789 20.5333 57.9994 21.6L61.7327 25.3333C62.7994 26.3556 63.3327 27.6116 63.3327 29.1013C63.3327 30.5911 62.7994 31.8684 61.7327 32.9333L58.9327 35.7333ZM19.3327 64V52.6667L43.866 28.1333L55.1994 39.4667L30.666 64H19.3327Z" fill="black"/>
</g>
<defs>
<clipPath id="clip0_7_5249">
<rect width="48" height="48" fill="white" transform="translate(16 16)"/>
</clipPath>
</defs>
</svg>
