<svg width="114" height="93" viewBox="0 0 114 93" fill="none" xmlns="http://www.w3.org/2000/svg">
<path d="M60.3862 107.184V101.881H99.3477L88.8214 26.8499L56.9998 0.0436401L25.1784 26.8499L14.6521 101.881H53.6136V107.184H0V113.956H114V107.184H60.3862ZM60.3862 11.7516L82.4748 30.3589L84.3344 43.6134L60.3864 23.4397V11.7516H60.3862ZM60.3862 32.2952L85.7431 53.6559L87.6028 66.9104L60.3862 43.9835V32.2952ZM60.3862 52.8388L89.0115 76.9529L90.8711 90.2076L60.3862 64.5269V52.8388ZM60.3862 73.3821L86.1773 95.1085H60.3862V73.3821ZM31.525 30.3589L53.6136 11.7518V23.4399L29.6656 43.6137L31.525 30.3589ZM53.6136 95.1087H27.8225L53.6136 73.3823V95.1087ZM53.6136 64.5266L23.1286 90.2071L24.9883 76.9524L53.6136 52.8385V64.5266ZM53.6138 43.9831L26.397 66.9104L28.2569 53.6557L53.6138 32.2949V43.9831Z" fill="#101828"/>
</svg>
