<svg width="115" height="30" viewBox="0 0 115 30" fill="none" xmlns="http://www.w3.org/2000/svg">
<path d="M5.586 23.705C6.03 24.445 6.64667 25.0493 7.436 25.518C8.25 26.0113 9.18733 26.258 10.248 26.258C11.3333 26.258 12.4187 25.9373 13.504 25.296C14.614 24.6793 15.539 23.9023 16.279 22.965L16.797 23.483C14.9963 26.295 12.5543 28.219 9.471 29.255C7.34967 29.255 5.61067 28.7123 4.254 27.627C2.89733 26.5417 1.93533 25.148 1.368 23.446C0.825333 21.744 0.554 19.6473 0.554 17.156C0.554 14.6647 0.862333 12.309 1.479 10.089C2.12033 7.84433 3.218 5.834 4.772 4.058C6.326 2.25733 8.26233 1.024 10.581 0.358C13.0723 0.358 15.613 0.592333 18.203 1.061L18.166 1.875C17.5247 1.875 16.9327 1.986 16.39 2.208C15.7733 3.66333 15.3663 5.40233 15.169 7.425H14.244C14.022 6.26567 13.911 5.15567 13.911 4.095C12.6037 3.37967 11.1607 3.022 9.582 3.022C8.028 3.022 6.74533 3.49066 5.734 4.428C4.476 6.96867 3.847 10.237 3.847 14.233C3.847 18.6977 4.42667 21.855 5.586 23.705ZM30.687 5.427C31.945 5.62433 33.3634 5.723 34.942 5.723C36.5454 5.723 37.9884 5.63667 39.271 5.464L39.382 6.389C38.4447 6.63567 37.421 6.82067 36.311 6.944C36.0644 8.47333 35.941 10.9893 35.941 14.492V16.231C35.941 19.783 36.0644 22.299 36.311 23.779C37.421 23.9023 38.4447 24.0873 39.382 24.334L39.271 25.259C37.9884 25.0863 36.5454 25 34.942 25C33.3634 25 31.945 25.0987 30.687 25.296L30.539 24.334C31.2297 24.112 32.0067 23.927 32.87 23.779C33.0674 20.9917 33.1784 18.2043 33.203 15.417C31.6244 15.269 30.169 15.195 28.837 15.195C27.505 15.195 26.062 15.269 24.508 15.417C24.508 19.487 24.619 22.2743 24.841 23.779C25.951 23.9023 26.9747 24.0873 27.912 24.334L27.801 25.259C26.5184 25.0863 25.0754 25 23.472 25C21.8934 25 20.475 25.0987 19.217 25.296L19.069 24.334C19.7597 24.112 20.5367 23.927 21.4 23.779C21.622 22.003 21.733 19.487 21.733 16.231V14.492C21.733 11.236 21.6097 8.72 21.363 6.944C20.4997 6.796 19.7227 6.611 19.032 6.389L19.18 5.427C20.438 5.62433 21.8564 5.723 23.435 5.723C25.0384 5.723 26.4814 5.63667 27.764 5.464L27.875 6.389C26.9377 6.63567 25.914 6.82067 24.804 6.944C24.6067 8.37467 24.508 10.5823 24.508 13.567C25.8894 13.7643 27.3694 13.863 28.948 13.863C30.5514 13.863 31.9697 13.7767 33.203 13.604C33.1784 11.5073 33.0674 9.28733 32.87 6.944C32.0067 6.796 31.2297 6.611 30.539 6.389L30.687 5.427ZM44.2484 5.316C46.5671 5.58733 48.9104 5.723 51.2784 5.723C53.6464 5.723 55.9774 5.58733 58.2714 5.316L58.4194 6.278C57.6794 6.574 56.9147 6.796 56.1254 6.944C55.8541 8.96667 55.7184 11.7787 55.7184 15.38C55.7184 18.9813 55.8541 21.7933 56.1254 23.816C56.6187 23.89 57.5314 24.075 58.8634 24.371L58.7154 25.296C57.5314 25.0987 56.0144 25 54.1644 25C52.3144 25 50.8961 25.0987 49.9094 25.296L49.7614 24.334C50.6001 24.0627 51.5497 23.8653 52.6104 23.742C52.7584 22.3113 52.8694 20.3257 52.9434 17.785C51.7841 17.6617 50.6247 17.6 49.4654 17.6C48.3061 17.6 47.2947 17.6617 46.4314 17.785C45.9381 19.8077 45.6914 21.2137 45.6914 22.003C45.6914 23.2117 46.1231 24.0627 46.9864 24.556L46.8384 25.185C46.2711 25.0617 45.1981 25 43.6194 25C42.0407 25 40.7951 25.0987 39.8824 25.296L39.7344 24.334C40.3264 24.112 41.1404 23.9147 42.1764 23.742L46.9864 6.87C45.9011 6.69733 44.9514 6.5 44.1374 6.278L44.2484 5.316ZM46.7274 16.046C47.6894 16.194 48.7501 16.268 49.9094 16.268C51.0934 16.268 52.1047 16.194 52.9434 16.046C52.9434 11.4827 52.8447 8.535 52.6474 7.203C51.8087 7.15367 51.1797 7.129 50.7604 7.129C50.3657 7.129 49.7491 7.15367 48.9104 7.203L46.7274 16.046ZM70.5375 25.259C69.2548 25.0863 67.8118 25 66.2085 25C64.6298 25 63.2115 25.0987 61.9535 25.296L61.8055 24.334C62.5948 24.0873 63.3348 23.9023 64.0255 23.779C64.2475 21.855 64.3585 19.339 64.3585 16.231V14.492C64.3585 11.1867 64.2351 8.646 63.9885 6.87C63.3225 6.796 62.5208 6.59867 61.5835 6.278L61.6945 5.316C63.1005 5.58733 64.5681 5.723 66.0975 5.723C67.6515 5.723 68.7615 5.63667 69.4275 5.464L69.5015 6.093C68.8355 6.26567 68.5025 6.54933 68.5025 6.944C68.5025 7.24 68.7861 7.869 69.3535 8.831C69.9455 9.76833 70.5128 10.681 71.0555 11.569C72.6835 14.159 74.6075 17.341 76.8275 21.115L76.9385 21.041V16.527C76.9385 13.2217 76.7658 10.7427 76.4205 9.09C76.0751 7.41267 75.4831 6.43833 74.6445 6.167L74.7185 5.538C75.3598 5.66133 76.3218 5.723 77.6045 5.723C78.8871 5.723 80.2068 5.58733 81.5635 5.316L81.6745 6.278C80.6631 6.59867 79.8121 6.796 79.1215 6.87C78.8748 8.84333 78.7515 11.384 78.7515 14.492V16.231C78.7515 19.9803 78.8748 22.521 79.1215 23.853C80.1575 24.0257 80.9838 24.223 81.6005 24.445L81.4895 25.407C80.2561 25.1357 79.0968 25 78.0115 25C76.9261 25 76.0875 25.0493 75.4955 25.148C75.4955 24.6053 75.1131 23.6927 74.3485 22.41C73.6085 21.1273 72.9301 19.9927 72.3135 19.006C70.3155 15.7747 68.3545 12.494 66.4305 9.164L66.2825 9.238V14.196C66.2825 19.1047 66.6525 22.299 67.3925 23.779C68.5025 23.9023 69.5878 24.0873 70.6485 24.334L70.5375 25.259ZM87.9055 15.861C87.9795 18.0563 88.3865 19.7707 89.1265 21.004C89.8665 22.2373 91.1245 22.854 92.9005 22.854C94.6765 22.854 96.3168 22.1017 97.8215 20.597L98.3395 21.115C96.6868 23.2117 94.7011 24.6547 92.3825 25.444C89.9898 25.444 88.1151 24.6917 86.7585 23.187C85.4018 21.6577 84.7235 19.6103 84.7235 17.045C84.7235 14.455 85.5251 12.0253 87.1285 9.756C88.7318 7.48667 90.7791 5.99433 93.2705 5.279C95.0711 5.279 97.1061 5.464 99.3755 5.834L99.3385 6.648C98.8698 6.648 98.4258 6.73433 98.0065 6.907C97.5378 8.017 97.2295 9.33667 97.0815 10.866H96.1565C95.9591 10.0273 95.8605 9.164 95.8605 8.276C94.9231 7.80733 93.8131 7.573 92.5305 7.573C91.2478 7.573 90.1871 7.91833 89.3485 8.609C88.5098 10.1383 88.0288 11.9637 87.9055 14.085C88.9415 14.2577 90.0515 14.344 91.2355 14.344C93.2828 14.344 94.5161 13.9123 94.9355 13.049L95.7125 13.16C95.4905 13.9 95.3795 14.6277 95.3795 15.343C95.3795 16.0583 95.4658 16.934 95.6385 17.97L94.7505 18.118C94.4791 17.378 94.2818 16.6133 94.1585 15.824C93.1718 15.7253 92.1851 15.676 91.1985 15.676C90.2365 15.676 89.1388 15.7377 87.9055 15.861ZM114.753 25.407C113.149 25.1357 110.966 25 108.204 25C105.466 25 103.172 25.1233 101.322 25.37L101.211 24.445C101.901 24.1737 102.691 23.9517 103.579 23.779C103.825 22.299 103.949 19.783 103.949 16.231V14.492C103.949 11.4333 103.825 8.91733 103.579 6.944C102.765 6.82067 101.988 6.63567 101.248 6.389L101.396 5.427C102.654 5.62433 104.134 5.723 105.836 5.723C107.538 5.723 108.993 5.62433 110.202 5.427L110.313 6.352C109.203 6.62333 108.105 6.82067 107.02 6.944C106.822 8.276 106.724 11.0263 106.724 15.195C106.724 19.339 106.822 22.1017 107.02 23.483C107.612 23.5817 108.45 23.631 109.536 23.631C110.621 23.631 111.595 23.4213 112.459 23.002C112.804 22.1633 112.977 21.1767 112.977 20.042H113.902C114 21.9413 114.346 23.483 114.938 24.667L114.753 25.407Z" fill="#C3C9CB"/>
</svg>
