<svg width="84" height="33" viewBox="0 0 84 33" fill="none" xmlns="http://www.w3.org/2000/svg">
<path d="M9.94949 22.558C11.1088 22.558 12.3175 22.2127 13.5755 21.522V18.488C13.5755 17.9207 13.5262 17.0943 13.4275 16.009C12.5642 15.7623 11.4418 15.5157 10.0605 15.269L10.1715 14.492C10.7388 14.566 11.2815 14.603 11.7995 14.603C13.9702 14.603 15.9558 13.9987 17.7565 12.79L18.0895 13.456C17.5222 13.9 17.0782 14.344 16.7575 14.788C16.2888 19.08 16.0422 23.0883 16.0175 26.813C15.3022 28.1203 14.1182 29.3783 12.4655 30.587C10.8375 31.7957 9.34516 32.4 7.98849 32.4C7.61849 32.4 7.31016 32.3013 7.06349 32.104C6.81682 31.9067 6.69349 31.6353 6.69349 31.29C7.40882 30.7473 8.01316 30.1183 8.50649 29.403L8.76549 29.366C9.30816 29.7853 9.93716 29.995 10.6525 29.995C11.3678 29.995 11.8612 29.921 12.1325 29.773C13.1438 28.4163 13.6495 26.1963 13.6495 23.113C12.2928 24.1737 10.7882 24.9877 9.13549 25.555C6.17549 25.555 3.94316 24.63 2.43849 22.78C0.95849 20.9053 0.21849 18.3277 0.21849 15.047C0.21849 11.7417 1.11882 8.683 2.91949 5.871C4.74482 3.03433 7.18682 1.19667 10.2455 0.358C12.8108 0.358 15.3885 0.592333 17.9785 1.061L17.9415 1.875C17.3248 1.875 16.7328 1.986 16.1655 2.208C15.4995 3.762 15.0925 5.501 14.9445 7.425H14.0195C13.7975 6.41367 13.6865 5.26667 13.6865 3.984C12.5272 3.34267 11.1088 3.022 9.43149 3.022C7.75416 3.022 6.40982 3.44133 5.39849 4.28C4.14049 6.426 3.51149 9.15167 3.51149 12.457C3.51149 19.191 5.65749 22.558 9.94949 22.558ZM36.2935 14.492V16.231C36.2935 19.6103 36.4168 22.1387 36.6635 23.816C37.7981 23.964 38.7355 24.1367 39.4755 24.334L39.3645 25.259C38.1558 25.0863 36.9102 25 35.6275 25C34.3695 25 33.5062 25.037 33.0375 25.111L32.8895 24.63C33.1115 24.3833 33.2595 23.6803 33.3335 22.521C32.0508 23.853 30.5708 24.8273 28.8935 25.444C24.6508 25.444 22.5295 22.9157 22.5295 17.859C22.5295 16.749 22.6158 14.973 22.7885 12.531C22.9611 10.089 23.0475 8.65833 23.0475 8.239C23.0475 7.81967 22.9735 7.41267 22.8255 7.018V6.981C21.7895 6.80833 20.9631 6.62333 20.3465 6.426L20.4945 5.427C21.9251 5.62433 23.2201 5.723 24.3795 5.723C25.5388 5.723 26.4885 5.66133 27.2285 5.538L27.3765 6.167C26.4885 6.63567 25.9705 7.48667 25.8225 8.72C25.5265 11.088 25.3785 13.5177 25.3785 16.009C25.3785 18.5003 25.6621 20.2763 26.2295 21.337C26.8215 22.373 27.9068 22.891 29.4855 22.891C31.0888 22.891 32.3838 22.4347 33.3705 21.522C33.4691 19.5487 33.5185 17.2177 33.5185 14.529C33.5185 11.8403 33.4198 9.312 33.2225 6.944C32.1125 6.82067 31.0888 6.63567 30.1515 6.389L30.2625 5.464C31.5451 5.63667 32.9758 5.723 34.5545 5.723C36.1578 5.723 37.5885 5.62433 38.8465 5.427L38.9945 6.389C38.3038 6.611 37.5268 6.796 36.6635 6.944C36.4168 8.59667 36.2935 11.1127 36.2935 14.492ZM50.5564 22.854C52.2584 22.854 53.8617 22.1017 55.3664 20.597L55.8844 21.115C54.2317 23.2117 52.2461 24.6547 49.9274 25.444C47.5347 25.444 45.6601 24.6917 44.3034 23.187C42.9467 21.6577 42.2684 19.6103 42.2684 17.045C42.2684 14.455 43.0701 12.0253 44.6734 9.756C46.2767 7.48667 48.3241 5.99433 50.8154 5.279C52.6161 5.279 54.6511 5.464 56.9204 5.834L56.8834 6.648C56.4147 6.648 55.9707 6.73433 55.5514 6.907C55.0827 8.017 54.7744 9.33667 54.6264 10.866H53.7014C53.5041 10.0273 53.4054 9.164 53.4054 8.276C52.4681 7.80733 51.3581 7.573 50.0754 7.573C48.7927 7.573 47.7321 7.91833 46.8934 8.609C45.9314 10.3603 45.4504 12.4817 45.4504 14.973C45.4504 18.8457 46.2767 21.2753 47.9294 22.262C48.6447 22.6567 49.5204 22.854 50.5564 22.854ZM66.5757 22.854C68.2777 22.854 69.881 22.1017 71.3857 20.597L71.9037 21.115C70.251 23.2117 68.2653 24.6547 65.9467 25.444C63.554 25.444 61.6793 24.6917 60.3227 23.187C58.966 21.6577 58.2877 19.6103 58.2877 17.045C58.2877 14.455 59.0893 12.0253 60.6927 9.756C62.296 7.48667 64.3433 5.99433 66.8347 5.279C68.6353 5.279 70.6703 5.464 72.9397 5.834L72.9027 6.648C72.434 6.648 71.99 6.73433 71.5707 6.907C71.102 8.017 70.7937 9.33667 70.6457 10.866H69.7207C69.5233 10.0273 69.4247 9.164 69.4247 8.276C68.4873 7.80733 67.3773 7.573 66.0947 7.573C64.812 7.573 63.7513 7.91833 62.9127 8.609C61.9507 10.3603 61.4697 12.4817 61.4697 14.973C61.4697 18.8457 62.296 21.2753 63.9487 22.262C64.664 22.6567 65.5397 22.854 66.5757 22.854ZM80.0419 6.944C79.8446 8.276 79.7459 11.0017 79.7459 15.121C79.7459 19.2403 79.8569 22.1263 80.0789 23.779C81.1889 23.9023 82.2126 24.0873 83.1499 24.334L83.0389 25.259C81.7562 25.0863 80.3132 25 78.7099 25C77.1312 25 75.7129 25.0987 74.4549 25.296L74.3069 24.334C74.9976 24.112 75.7746 23.927 76.6379 23.779C76.8599 22.003 76.9709 19.487 76.9709 16.231V14.492C76.9709 11.236 76.8476 8.72 76.6009 6.944C75.7376 6.796 74.9606 6.611 74.2699 6.389L74.4179 5.427C75.6759 5.62433 77.0942 5.723 78.6729 5.723C80.2762 5.723 81.7192 5.63667 83.0019 5.464L83.1129 6.389C82.1756 6.63567 81.1519 6.82067 80.0419 6.944Z" fill="#C3C9CB"/>
</svg>
