<svg width="220" height="27" viewBox="0 0 220 27" fill="none" xmlns="http://www.w3.org/2000/svg">
<path d="M8.066 2.208C7.74533 4.37867 7.585 7.832 7.585 12.568C7.585 17.2793 7.68367 20.745 7.881 22.965C8.71967 23.0143 9.509 23.039 10.249 23.039C13.1597 23.039 15.022 22.6443 15.836 21.855C16.0087 21.5097 16.095 20.967 16.095 20.227C16.095 19.487 15.9717 18.9813 15.725 18.71L15.762 18.451C16.3787 18.081 16.9953 17.563 17.612 16.897C17.908 16.9217 18.1423 17.045 18.315 17.267C18.5123 17.489 18.611 17.748 18.611 18.044C18.611 19.2527 17.8833 20.6957 16.428 22.373C14.9727 24.0503 13.616 25.111 12.358 25.555C10.2367 25.481 7.94267 25.1233 5.476 24.482C5.13067 24.926 4.847 25.4933 4.625 26.184L3.848 25.962C4.366 23.4707 4.662 19.3883 4.736 13.715V11.865C4.736 7.54833 4.60033 4.36633 4.329 2.319C3.071 2.14633 1.887 1.88733 0.777 1.542L0.925 0.616999C2.23233 0.814332 3.94667 0.912999 6.068 0.912999C8.214 0.912999 10.1997 0.814332 12.025 0.616999L12.136 1.505C10.656 1.85033 9.29933 2.08466 8.066 2.208ZM26.5863 25.444C24.1443 25.444 22.171 24.6793 20.6663 23.15C19.1616 21.596 18.4093 19.524 18.4093 16.934C18.4093 14.344 19.1986 11.9143 20.7773 9.645C22.356 7.37567 24.4156 5.92033 26.9563 5.279C29.497 5.279 31.4333 6.00666 32.7653 7.462C34.0973 8.89267 34.7633 10.94 34.7633 13.604C34.7633 16.268 34.0357 18.673 32.5803 20.819C31.1496 22.965 29.1516 24.5067 26.5863 25.444ZM25.9573 7.536C24.8473 7.536 23.8853 7.84433 23.0713 8.461C22.06 10.1877 21.5543 12.3583 21.5543 14.973C21.5543 17.9823 22.393 20.2887 24.0703 21.892C24.9583 22.7553 26.0066 23.187 27.2153 23.187C28.424 23.187 29.3983 22.8663 30.1383 22.225C31.125 20.4983 31.6183 18.3893 31.6183 15.898C31.6183 13.4067 31.1743 11.3963 30.2863 9.867C29.3983 8.313 27.9553 7.536 25.9573 7.536ZM53.3692 14.492V16.231C53.3692 19.6103 53.4925 22.1387 53.7392 23.816C54.8739 23.964 55.8112 24.1367 56.5512 24.334L56.4402 25.259C55.2315 25.0863 53.9859 25 52.7032 25C51.4452 25 50.5819 25.037 50.1132 25.111L49.9652 24.63C50.1872 24.3833 50.3352 23.6803 50.4092 22.521C49.1265 23.853 47.6465 24.8273 45.9692 25.444C41.7265 25.444 39.6052 22.9157 39.6052 17.859C39.6052 16.749 39.6915 14.973 39.8642 12.531C40.0369 10.089 40.1232 8.65833 40.1232 8.239C40.1232 7.81967 40.0492 7.41267 39.9012 7.018V6.981C38.8652 6.80833 38.0389 6.62333 37.4222 6.426L37.5702 5.427C39.0009 5.62433 40.2959 5.723 41.4552 5.723C42.6145 5.723 43.5642 5.66133 44.3042 5.538L44.4522 6.167C43.5642 6.63567 43.0462 7.48667 42.8982 8.72C42.6022 11.088 42.4542 13.5177 42.4542 16.009C42.4542 18.5003 42.7379 20.2763 43.3052 21.337C43.8972 22.373 44.9825 22.891 46.5612 22.891C48.1645 22.891 49.4595 22.4347 50.4462 21.522C50.5449 19.5487 50.5942 17.2177 50.5942 14.529C50.5942 11.8403 50.4955 9.312 50.2982 6.944C49.1882 6.82067 48.1645 6.63567 47.2272 6.389L47.3382 5.464C48.6209 5.63667 50.0515 5.723 51.6302 5.723C53.2335 5.723 54.6642 5.62433 55.9222 5.427L56.0702 6.389C55.3795 6.611 54.6025 6.796 53.7392 6.944C53.4925 8.59667 53.3692 11.1127 53.3692 14.492ZM65.0841 6.944C64.8868 8.276 64.7881 11.0017 64.7881 15.121C64.7881 19.2403 64.8991 22.1263 65.1211 23.779C66.2311 23.9023 67.2548 24.0873 68.1921 24.334L68.0811 25.259C66.7984 25.0863 65.3554 25 63.7521 25C62.1734 25 60.7551 25.0987 59.4971 25.296L59.3491 24.334C60.0398 24.112 60.8168 23.927 61.6801 23.779C61.9021 22.003 62.0131 19.487 62.0131 16.231V14.492C62.0131 11.236 61.8898 8.72 61.6431 6.944C60.7798 6.796 60.0028 6.611 59.3121 6.389L59.4601 5.427C60.7181 5.62433 62.1364 5.723 63.7151 5.723C65.3184 5.723 66.7614 5.63667 68.0441 5.464L68.1551 6.389C67.2178 6.63567 66.1941 6.82067 65.0841 6.944ZM73.1904 22.188C74.325 22.6567 75.4474 22.891 76.5574 22.891C77.6674 22.891 78.5554 22.632 79.2214 22.114C79.8874 21.596 80.2204 20.856 80.2204 19.894C80.2204 18.9073 78.8267 17.6863 76.0394 16.231C74.9787 15.6883 74.0044 15.0347 73.1164 14.27C72.253 13.4807 71.8214 12.7037 71.8214 11.939C71.8214 10.6317 72.512 9.312 73.8934 7.98C75.2747 6.648 76.693 5.74767 78.1484 5.279C79.9737 5.279 81.6264 5.464 83.1064 5.834V6.5C82.0704 7.536 81.4907 8.95433 81.3674 10.755H80.4424C80.4424 10.0643 80.3807 9.201 80.2574 8.165C79.394 7.77033 78.469 7.573 77.4824 7.573C76.4957 7.573 75.6694 7.795 75.0034 8.239C74.362 8.65833 74.0414 9.275 74.0414 10.089C74.0414 10.6563 74.473 11.273 75.3364 11.939C76.2244 12.605 77.1864 13.197 78.2224 13.715C79.2584 14.233 80.208 14.8743 81.0714 15.639C81.9594 16.4037 82.4034 17.1683 82.4034 17.933C82.4034 19.413 81.7497 20.893 80.4424 22.373C79.135 23.8283 77.692 24.852 76.1134 25.444C74.5594 25.444 73.104 25.259 71.7474 24.889C71.3527 25.0617 70.9457 25.3453 70.5264 25.74L69.8604 25.259C71.2417 23.7543 72.0064 21.892 72.1544 19.672H73.0794C73.0794 20.5353 73.1164 21.374 73.1904 22.188ZM106.919 25.296C105.463 25.0987 103.835 25 102.035 25C100.259 25 98.9883 25.0493 98.2236 25.148L98.0756 24.63C98.3716 24.5313 98.6553 24.3833 98.9266 24.186C99.198 23.964 99.3336 23.7297 99.3336 23.483C99.3336 21.6823 97.6933 15.6637 94.4126 5.427C94.1166 4.48967 93.8206 3.66333 93.5246 2.948C90.6386 2.948 88.7886 3.34267 87.9746 4.132C87.802 4.47733 87.7156 5.02 87.7156 5.76C87.7156 6.5 87.839 7.00567 88.0856 7.277L88.0486 7.536C87.432 7.906 86.8153 8.424 86.1986 9.09C85.9026 9.06533 85.6683 8.942 85.4956 8.72C85.2983 8.498 85.1996 8.239 85.1996 7.943C85.1996 6.73433 85.9273 5.29133 87.3826 3.614C88.838 1.93667 90.1946 0.875999 91.4526 0.431999C91.65 0.431999 92.538 0.518332 94.1166 0.691C95.6953 0.838999 96.9286 0.912999 97.8166 0.912999C98.7293 0.912999 99.568 0.838999 100.333 0.691L100.481 1.616C99.6913 1.912 98.643 2.23267 97.3356 2.578C97.5823 4.67467 98.2236 7.684 99.2596 11.606C100.32 15.5033 101.443 19.117 102.627 22.447C104.699 17.859 106.08 14.381 106.771 12.013C107.486 9.62033 107.844 7.56067 107.844 5.834C107.844 3.51533 107.227 1.99833 105.994 1.283L106.142 0.764999C106.906 0.863666 108.127 0.912999 109.805 0.912999C111.507 0.912999 113.085 0.814332 114.541 0.616999L114.689 1.542C113.579 1.88733 112.395 2.14633 111.137 2.319C111.26 3.18233 111.322 3.89767 111.322 4.465C111.322 6.63567 110.779 8.96667 109.694 11.458C108.633 13.9493 106.573 18.0317 103.515 23.705C104.773 23.8777 105.957 24.1367 107.067 24.482L106.919 25.296ZM130.455 14.492V16.231C130.455 19.6103 130.579 22.1387 130.825 23.816C131.96 23.964 132.897 24.1367 133.637 24.334L133.526 25.259C132.318 25.0863 131.072 25 129.789 25C128.531 25 127.668 25.037 127.199 25.111L127.051 24.63C127.273 24.3833 127.421 23.6803 127.495 22.521C126.213 23.853 124.733 24.8273 123.055 25.444C118.813 25.444 116.691 22.9157 116.691 17.859C116.691 16.749 116.778 14.973 116.95 12.531C117.123 10.089 117.209 8.65833 117.209 8.239C117.209 7.81967 117.135 7.41267 116.987 7.018V6.981C115.951 6.80833 115.125 6.62333 114.508 6.426L114.656 5.427C116.087 5.62433 117.382 5.723 118.541 5.723C119.701 5.723 120.65 5.66133 121.39 5.538L121.538 6.167C120.65 6.63567 120.132 7.48667 119.984 8.72C119.688 11.088 119.54 13.5177 119.54 16.009C119.54 18.5003 119.824 20.2763 120.391 21.337C120.983 22.373 122.069 22.891 123.647 22.891C125.251 22.891 126.546 22.4347 127.532 21.522C127.631 19.5487 127.68 17.2177 127.68 14.529C127.68 11.8403 127.582 9.312 127.384 6.944C126.274 6.82067 125.251 6.63567 124.313 6.389L124.424 5.464C125.707 5.63667 127.138 5.723 128.716 5.723C130.32 5.723 131.75 5.62433 133.008 5.427L133.156 6.389C132.466 6.611 131.689 6.796 130.825 6.944C130.579 8.59667 130.455 11.1127 130.455 14.492ZM142.17 6.944C141.973 8.276 141.874 11.0017 141.874 15.121C141.874 19.2403 141.985 22.1263 142.207 23.779C143.317 23.9023 144.341 24.0873 145.278 24.334L145.167 25.259C143.885 25.0863 142.442 25 140.838 25C139.26 25 137.841 25.0987 136.583 25.296L136.435 24.334C137.126 24.112 137.903 23.927 138.766 23.779C138.988 22.003 139.099 19.487 139.099 16.231V14.492C139.099 11.236 138.976 8.72 138.729 6.944C137.866 6.796 137.089 6.611 136.398 6.389L136.546 5.427C137.804 5.62433 139.223 5.723 140.801 5.723C142.405 5.723 143.848 5.63667 145.13 5.464L145.241 6.389C144.304 6.63567 143.28 6.82067 142.17 6.944ZM159.86 7.721C158.996 7.30167 158.17 7.092 157.381 7.092C156.591 7.092 156.061 7.14133 155.79 7.24C155.592 8.572 155.494 11.1497 155.494 14.973C155.494 18.7963 155.629 21.7317 155.901 23.779C157.011 23.9023 158.034 24.0873 158.972 24.334L158.861 25.259C157.578 25.0863 156.098 25 154.421 25C152.768 25 151.313 25.0987 150.055 25.296L149.907 24.334C150.4 24.186 151.251 24.001 152.46 23.779C152.682 22.003 152.793 19.487 152.793 16.231V14.492C152.793 12.7653 152.657 10.348 152.386 7.24C152.114 7.14133 151.609 7.092 150.869 7.092C150.129 7.092 149.339 7.26467 148.501 7.61C148.254 8.37467 148.081 9.39833 147.983 10.681H147.021C147.021 8.65833 146.688 7.092 146.022 5.982L146.207 5.353C148.106 5.59967 150.77 5.723 154.199 5.723C157.627 5.723 160.39 5.58733 162.487 5.316L162.709 6.019C162.092 6.70967 161.673 7.388 161.451 8.054C161.229 8.69533 161.093 9.571 161.044 10.681H160.119C159.946 9.867 159.86 8.88033 159.86 7.721ZM175.775 7.721C174.912 7.30167 174.086 7.092 173.296 7.092C172.507 7.092 171.977 7.14133 171.705 7.24C171.508 8.572 171.409 11.1497 171.409 14.973C171.409 18.7963 171.545 21.7317 171.816 23.779C172.926 23.9023 173.95 24.0873 174.887 24.334L174.776 25.259C173.494 25.0863 172.014 25 170.336 25C168.684 25 167.228 25.0987 165.97 25.296L165.822 24.334C166.316 24.186 167.167 24.001 168.375 23.779C168.597 22.003 168.708 19.487 168.708 16.231V14.492C168.708 12.7653 168.573 10.348 168.301 7.24C168.03 7.14133 167.524 7.092 166.784 7.092C166.044 7.092 165.255 7.26467 164.416 7.61C164.17 8.37467 163.997 9.39833 163.898 10.681H162.936C162.936 8.65833 162.603 7.092 161.937 5.982L162.122 5.353C164.022 5.59967 166.686 5.723 170.114 5.723C173.543 5.723 176.306 5.58733 178.402 5.316L178.624 6.019C178.008 6.70967 177.588 7.388 177.366 8.054C177.144 8.69533 177.009 9.571 176.959 10.681H176.034C175.862 9.867 175.775 8.88033 175.775 7.721ZM187.732 25.444C185.29 25.444 183.317 24.6793 181.812 23.15C180.308 21.596 179.555 19.524 179.555 16.934C179.555 14.344 180.345 11.9143 181.923 9.645C183.502 7.37567 185.562 5.92033 188.102 5.279C190.643 5.279 192.579 6.00666 193.911 7.462C195.243 8.89267 195.909 10.94 195.909 13.604C195.909 16.268 195.182 18.673 193.726 20.819C192.296 22.965 190.298 24.5067 187.732 25.444ZM187.103 7.536C185.993 7.536 185.031 7.84433 184.217 8.461C183.206 10.1877 182.7 12.3583 182.7 14.973C182.7 17.9823 183.539 20.2887 185.216 21.892C186.104 22.7553 187.153 23.187 188.361 23.187C189.57 23.187 190.544 22.8663 191.284 22.225C192.271 20.4983 192.764 18.3893 192.764 15.898C192.764 13.4067 192.32 11.3963 191.432 9.867C190.544 8.313 189.101 7.536 187.103 7.536ZM207.966 25.259C206.683 25.0863 205.24 25 203.637 25C202.058 25 200.64 25.0987 199.382 25.296L199.234 24.334C200.023 24.0873 200.763 23.9023 201.454 23.779C201.676 21.855 201.787 19.339 201.787 16.231V14.492C201.787 11.1867 201.664 8.646 201.417 6.87C200.751 6.796 199.949 6.59867 199.012 6.278L199.123 5.316C200.529 5.58733 201.997 5.723 203.526 5.723C205.08 5.723 206.19 5.63667 206.856 5.464L206.93 6.093C206.264 6.26567 205.931 6.54933 205.931 6.944C205.931 7.24 206.215 7.869 206.782 8.831C207.374 9.76833 207.941 10.681 208.484 11.569C210.112 14.159 212.036 17.341 214.256 21.115L214.367 21.041V16.527C214.367 13.2217 214.194 10.7427 213.849 9.09C213.504 7.41267 212.912 6.43833 212.073 6.167L212.147 5.538C212.788 5.66133 213.75 5.723 215.033 5.723C216.316 5.723 217.635 5.58733 218.992 5.316L219.103 6.278C218.092 6.59867 217.241 6.796 216.55 6.87C216.303 8.84333 216.18 11.384 216.18 14.492V16.231C216.18 19.9803 216.303 22.521 216.55 23.853C217.586 24.0257 218.412 24.223 219.029 24.445L218.918 25.407C217.685 25.1357 216.525 25 215.44 25C214.355 25 213.516 25.0493 212.924 25.148C212.924 24.6053 212.542 23.6927 211.777 22.41C211.037 21.1273 210.359 19.9927 209.742 19.006C207.744 15.7747 205.783 12.494 203.859 9.164L203.711 9.238V14.196C203.711 19.1047 204.081 22.299 204.821 23.779C205.931 23.9023 207.016 24.0873 208.077 24.334L207.966 25.259Z" fill="#C3C9CB"/>
</svg>
