<svg width="228" height="30" viewBox="0 0 228 30" fill="none" xmlns="http://www.w3.org/2000/svg">
<path d="M0.407 24.556C0.407 22.3853 0.875667 20.5107 1.813 18.932C2.775 17.3533 3.774 16.564 4.81 16.564C5.08133 16.564 5.35267 16.6503 5.624 16.823L5.735 17.082C5.41433 17.6987 5.217 18.4757 5.143 19.413L4.921 19.561C4.82233 19.5117 4.63733 19.487 4.366 19.487C4.09467 19.487 3.68767 19.635 3.145 19.931C2.627 20.227 2.22 20.523 1.924 20.819C1.75133 21.1643 1.665 21.559 1.665 22.003C1.665 23.1623 2.442 24.1613 3.996 25C5.57467 25.814 7.09167 26.221 8.547 26.221C11.581 26.221 13.098 24.4943 13.098 21.041C13.098 19.7337 11.8523 18.0933 9.361 16.12C8.325 15.2813 7.289 14.4427 6.253 13.604C3.76167 11.6307 2.516 9.91633 2.516 8.461C2.516 6.73433 3.293 5.131 4.847 3.651C6.401 2.14633 8.16467 1.04867 10.138 0.358C12.2593 0.358 14.2697 0.567666 16.169 0.986998V1.727C14.8863 2.911 14.171 4.73633 14.023 7.203H13.098C13.098 5.89567 13.0363 4.74867 12.913 3.762C11.8523 3.26867 10.693 3.022 9.435 3.022C8.20167 3.022 7.15333 3.29333 6.29 3.836C5.42667 4.354 4.995 5.02 4.995 5.834C4.995 6.648 5.35267 7.47433 6.068 8.313C6.808 9.127 7.696 9.92867 8.732 10.718C9.768 11.4827 10.7917 12.272 11.803 13.086C12.839 13.8753 13.7147 14.7387 14.43 15.676C15.17 16.5887 15.54 17.4767 15.54 18.34C15.54 20.8067 14.8617 23.002 13.505 24.926C12.1483 26.85 10.2983 28.293 7.955 29.255C4.87167 28.9343 2.405 28.071 0.555 26.665C0.456333 25.9743 0.407 25.2713 0.407 24.556ZM21.174 5.316C23.4926 5.58733 25.836 5.723 28.204 5.723C30.572 5.723 32.903 5.58733 35.197 5.316L35.345 6.278C34.605 6.574 33.8403 6.796 33.051 6.944C32.7796 8.96667 32.644 11.7787 32.644 15.38C32.644 18.9813 32.7796 21.7933 33.051 23.816C33.5443 23.89 34.457 24.075 35.789 24.371L35.641 25.296C34.457 25.0987 32.94 25 31.09 25C29.24 25 27.8216 25.0987 26.835 25.296L26.687 24.334C27.5256 24.0627 28.4753 23.8653 29.536 23.742C29.684 22.3113 29.795 20.3257 29.869 17.785C28.7096 17.6617 27.5503 17.6 26.391 17.6C25.2316 17.6 24.2203 17.6617 23.357 17.785C22.8636 19.8077 22.617 21.2137 22.617 22.003C22.617 23.2117 23.0486 24.0627 23.912 24.556L23.764 25.185C23.1966 25.0617 22.1236 25 20.545 25C18.9663 25 17.7206 25.0987 16.808 25.296L16.66 24.334C17.252 24.112 18.066 23.9147 19.102 23.742L23.912 6.87C22.8266 6.69733 21.877 6.5 21.063 6.278L21.174 5.316ZM23.653 16.046C24.615 16.194 25.6756 16.268 26.835 16.268C28.019 16.268 29.0303 16.194 29.869 16.046C29.869 11.4827 29.7703 8.535 29.573 7.203C28.7343 7.15367 28.1053 7.129 27.686 7.129C27.2913 7.129 26.6746 7.15367 25.836 7.203L23.653 16.046ZM44.3575 6.944C44.1601 8.276 44.0615 11.0017 44.0615 15.121C44.0615 19.2403 44.1725 22.1263 44.3945 23.779C45.5045 23.9023 46.5281 24.0873 47.4655 24.334L47.3545 25.259C46.0718 25.0863 44.6288 25 43.0255 25C41.4468 25 40.0285 25.0987 38.7705 25.296L38.6225 24.334C39.3131 24.112 40.0901 23.927 40.9535 23.779C41.1755 22.003 41.2865 19.487 41.2865 16.231V14.492C41.2865 11.236 41.1631 8.72 40.9165 6.944C40.0531 6.796 39.2761 6.611 38.5855 6.389L38.7335 5.427C39.9915 5.62433 41.4098 5.723 42.9885 5.723C44.5918 5.723 46.0348 5.63667 47.3175 5.464L47.4285 6.389C46.4911 6.63567 45.4675 6.82067 44.3575 6.944ZM58.8622 25.259C57.5795 25.0863 56.1365 25 54.5332 25C52.9545 25 51.5362 25.0987 50.2782 25.296L50.1302 24.334C50.9195 24.0873 51.6595 23.9023 52.3502 23.779C52.5722 21.855 52.6832 19.339 52.6832 16.231V14.492C52.6832 11.1867 52.5598 8.646 52.3132 6.87C51.6472 6.796 50.8455 6.59867 49.9082 6.278L50.0192 5.316C51.4252 5.58733 52.8928 5.723 54.4222 5.723C55.9762 5.723 57.0862 5.63667 57.7522 5.464L57.8262 6.093C57.1602 6.26567 56.8272 6.54933 56.8272 6.944C56.8272 7.24 57.1108 7.869 57.6782 8.831C58.2702 9.76833 58.8375 10.681 59.3802 11.569C61.0082 14.159 62.9322 17.341 65.1522 21.115L65.2632 21.041V16.527C65.2632 13.2217 65.0905 10.7427 64.7452 9.09C64.3998 7.41267 63.8078 6.43833 62.9692 6.167L63.0432 5.538C63.6845 5.66133 64.6465 5.723 65.9292 5.723C67.2118 5.723 68.5315 5.58733 69.8882 5.316L69.9992 6.278C68.9878 6.59867 68.1368 6.796 67.4462 6.87C67.1995 8.84333 67.0762 11.384 67.0762 14.492V16.231C67.0762 19.9803 67.1995 22.521 67.4462 23.853C68.4822 24.0257 69.3085 24.223 69.9252 24.445L69.8142 25.407C68.5808 25.1357 67.4215 25 66.3362 25C65.2508 25 64.4122 25.0493 63.8202 25.148C63.8202 24.6053 63.4378 23.6927 62.6732 22.41C61.9332 21.1273 61.2548 19.9927 60.6382 19.006C58.6402 15.7747 56.6792 12.494 54.7552 9.164L54.6072 9.238V14.196C54.6072 19.1047 54.9772 22.299 55.7172 23.779C56.8272 23.9023 57.9125 24.0873 58.9732 24.334L58.8622 25.259ZM85.0756 7.721C84.2123 7.30167 83.386 7.092 82.5966 7.092C81.8073 7.092 81.277 7.14133 81.0056 7.24C80.8083 8.572 80.7096 11.1497 80.7096 14.973C80.7096 18.7963 80.8453 21.7317 81.1166 23.779C82.2266 23.9023 83.2503 24.0873 84.1876 24.334L84.0766 25.259C82.794 25.0863 81.314 25 79.6366 25C77.984 25 76.5286 25.0987 75.2706 25.296L75.1226 24.334C75.616 24.186 76.467 24.001 77.6756 23.779C77.8976 22.003 78.0086 19.487 78.0086 16.231V14.492C78.0086 12.7653 77.873 10.348 77.6016 7.24C77.3303 7.14133 76.8246 7.092 76.0846 7.092C75.3446 7.092 74.5553 7.26467 73.7166 7.61C73.47 8.37467 73.2973 9.39833 73.1986 10.681H72.2366C72.2366 8.65833 71.9036 7.092 71.2376 5.982L71.4226 5.353C73.322 5.59967 75.986 5.723 79.4146 5.723C82.8433 5.723 85.606 5.58733 87.7026 5.316L87.9246 6.019C87.308 6.70967 86.8886 7.388 86.6666 8.054C86.4446 8.69533 86.309 9.571 86.2596 10.681H85.3346C85.162 9.867 85.0756 8.88033 85.0756 7.721ZM101.992 2.208C101.671 4.37867 101.511 7.832 101.511 12.568C101.511 17.2793 101.61 20.745 101.807 22.965C102.646 23.0143 103.435 23.039 104.175 23.039C107.086 23.039 108.948 22.6443 109.762 21.855C109.935 21.5097 110.021 20.967 110.021 20.227C110.021 19.487 109.898 18.9813 109.651 18.71L109.688 18.451C110.305 18.081 110.921 17.563 111.538 16.897C111.834 16.9217 112.068 17.045 112.241 17.267C112.438 17.489 112.537 17.748 112.537 18.044C112.537 19.2527 111.809 20.6957 110.354 22.373C108.899 24.0503 107.542 25.111 106.284 25.555C104.163 25.481 101.869 25.1233 99.4021 24.482C99.0568 24.926 98.7731 25.4933 98.5511 26.184L97.7741 25.962C98.2921 23.4707 98.5881 19.3883 98.6621 13.715V11.865C98.6621 7.54833 98.5265 4.36633 98.2551 2.319C96.9971 2.14633 95.8131 1.88733 94.7031 1.542L94.8511 0.616999C96.1585 0.814332 97.8728 0.912999 99.9941 0.912999C102.14 0.912999 104.126 0.814332 105.951 0.616999L106.062 1.505C104.582 1.85033 103.225 2.08466 101.992 2.208ZM114.775 5.316C117.094 5.58733 119.437 5.723 121.805 5.723C124.173 5.723 126.504 5.58733 128.798 5.316L128.946 6.278C128.206 6.574 127.441 6.796 126.652 6.944C126.381 8.96667 126.245 11.7787 126.245 15.38C126.245 18.9813 126.381 21.7933 126.652 23.816C127.145 23.89 128.058 24.075 129.39 24.371L129.242 25.296C128.058 25.0987 126.541 25 124.691 25C122.841 25 121.423 25.0987 120.436 25.296L120.288 24.334C121.127 24.0627 122.076 23.8653 123.137 23.742C123.285 22.3113 123.396 20.3257 123.47 17.785C122.311 17.6617 121.151 17.6 119.992 17.6C118.833 17.6 117.821 17.6617 116.958 17.785C116.465 19.8077 116.218 21.2137 116.218 22.003C116.218 23.2117 116.65 24.0627 117.513 24.556L117.365 25.185C116.798 25.0617 115.725 25 114.146 25C112.567 25 111.322 25.0987 110.409 25.296L110.261 24.334C110.853 24.112 111.667 23.9147 112.703 23.742L117.513 6.87C116.428 6.69733 115.478 6.5 114.664 6.278L114.775 5.316ZM117.254 16.046C118.216 16.194 119.277 16.268 120.436 16.268C121.62 16.268 122.631 16.194 123.47 16.046C123.47 11.4827 123.371 8.535 123.174 7.203C122.335 7.15367 121.706 7.129 121.287 7.129C120.892 7.129 120.276 7.15367 119.437 7.203L117.254 16.046ZM147.615 14.492V16.231C147.615 19.6103 147.739 22.1387 147.985 23.816C149.12 23.964 150.057 24.1367 150.797 24.334L150.686 25.259C149.478 25.0863 148.232 25 146.949 25C145.691 25 144.828 25.037 144.359 25.111L144.211 24.63C144.433 24.3833 144.581 23.6803 144.655 22.521C143.373 23.853 141.893 24.8273 140.215 25.444C135.973 25.444 133.851 22.9157 133.851 17.859C133.851 16.749 133.938 14.973 134.11 12.531C134.283 10.089 134.369 8.65833 134.369 8.239C134.369 7.81967 134.295 7.41267 134.147 7.018V6.981C133.111 6.80833 132.285 6.62333 131.668 6.426L131.816 5.427C133.247 5.62433 134.542 5.723 135.701 5.723C136.861 5.723 137.81 5.66133 138.55 5.538L138.698 6.167C137.81 6.63567 137.292 7.48667 137.144 8.72C136.848 11.088 136.7 13.5177 136.7 16.009C136.7 18.5003 136.984 20.2763 137.551 21.337C138.143 22.373 139.229 22.891 140.807 22.891C142.411 22.891 143.706 22.4347 144.692 21.522C144.791 19.5487 144.84 17.2177 144.84 14.529C144.84 11.8403 144.742 9.312 144.544 6.944C143.434 6.82067 142.411 6.63567 141.473 6.389L141.584 5.464C142.867 5.63667 144.298 5.723 145.876 5.723C147.48 5.723 148.91 5.62433 150.168 5.427L150.316 6.389C149.626 6.611 148.849 6.796 147.985 6.944C147.739 8.59667 147.615 11.1127 147.615 14.492ZM153.519 5.797L162.029 5.538C164.249 5.538 165.914 5.871 167.024 6.537C168.134 7.17833 168.689 8.36233 168.689 10.089C168.689 11.273 168.319 12.3213 167.579 13.234C166.863 14.1467 165.914 14.825 164.73 15.269L168.874 23.742C169.712 23.89 170.502 24.0627 171.242 24.26L171.094 25.259C170.058 25.0863 168.886 25 167.579 25C166.296 25 165.285 25.0617 164.545 25.185L164.397 24.593C164.717 24.2723 164.878 23.742 164.878 23.002C164.878 21.4973 164.014 19.08 162.288 15.75C161.77 15.6513 161.165 15.602 160.475 15.602L160.549 14.529H160.919C163.829 14.529 165.285 13.197 165.285 10.533C165.285 8.06633 164.039 6.833 161.548 6.833C160.709 6.833 159.957 6.96867 159.291 7.24C159.118 8.868 159.032 11.6553 159.032 15.602C159.032 19.5487 159.143 22.2743 159.365 23.779C160.45 23.9023 161.461 24.0873 162.399 24.334L162.288 25.259C161.005 25.0863 159.562 25 157.959 25C156.38 25 154.962 25.0987 153.704 25.296L153.556 24.334C154.246 24.112 155.023 23.927 155.887 23.779C156.133 21.929 156.257 19.0553 156.257 15.158C156.257 11.236 156.146 8.52267 155.924 7.018C154.962 6.69733 154.16 6.537 153.519 6.537V5.797ZM176.229 15.861C176.303 18.0563 176.71 19.7707 177.45 21.004C178.19 22.2373 179.448 22.854 181.224 22.854C183 22.854 184.64 22.1017 186.145 20.597L186.663 21.115C185.01 23.2117 183.025 24.6547 180.706 25.444C178.313 25.444 176.439 24.6917 175.082 23.187C173.725 21.6577 173.047 19.6103 173.047 17.045C173.047 14.455 173.849 12.0253 175.452 9.756C177.055 7.48667 179.103 5.99433 181.594 5.279C183.395 5.279 185.43 5.464 187.699 5.834L187.662 6.648C187.193 6.648 186.749 6.73433 186.33 6.907C185.861 8.017 185.553 9.33667 185.405 10.866H184.48C184.283 10.0273 184.184 9.164 184.184 8.276C183.247 7.80733 182.137 7.573 180.854 7.573C179.571 7.573 178.511 7.91833 177.672 8.609C176.833 10.1383 176.352 11.9637 176.229 14.085C177.265 14.2577 178.375 14.344 179.559 14.344C181.606 14.344 182.84 13.9123 183.259 13.049L184.036 13.16C183.814 13.9 183.703 14.6277 183.703 15.343C183.703 16.0583 183.789 16.934 183.962 17.97L183.074 18.118C182.803 17.378 182.605 16.6133 182.482 15.824C181.495 15.7253 180.509 15.676 179.522 15.676C178.56 15.676 177.462 15.7377 176.229 15.861ZM198.454 25.259C197.171 25.0863 195.728 25 194.125 25C192.546 25 191.128 25.0987 189.87 25.296L189.722 24.334C190.511 24.0873 191.251 23.9023 191.942 23.779C192.164 21.855 192.275 19.339 192.275 16.231V14.492C192.275 11.1867 192.151 8.646 191.905 6.87C191.239 6.796 190.437 6.59867 189.5 6.278L189.611 5.316C191.017 5.58733 192.484 5.723 194.014 5.723C195.568 5.723 196.678 5.63667 197.344 5.464L197.418 6.093C196.752 6.26567 196.419 6.54933 196.419 6.944C196.419 7.24 196.702 7.869 197.27 8.831C197.862 9.76833 198.429 10.681 198.972 11.569C200.6 14.159 202.524 17.341 204.744 21.115L204.855 21.041V16.527C204.855 13.2217 204.682 10.7427 204.337 9.09C203.991 7.41267 203.399 6.43833 202.561 6.167L202.635 5.538C203.276 5.66133 204.238 5.723 205.521 5.723C206.803 5.723 208.123 5.58733 209.48 5.316L209.591 6.278C208.579 6.59867 207.728 6.796 207.038 6.87C206.791 8.84333 206.668 11.384 206.668 14.492V16.231C206.668 19.9803 206.791 22.521 207.038 23.853C208.074 24.0257 208.9 24.223 209.517 24.445L209.406 25.407C208.172 25.1357 207.013 25 205.928 25C204.842 25 204.004 25.0493 203.412 25.148C203.412 24.6053 203.029 23.6927 202.265 22.41C201.525 21.1273 200.846 19.9927 200.23 19.006C198.232 15.7747 196.271 12.494 194.347 9.164L194.199 9.238V14.196C194.199 19.1047 194.569 22.299 195.309 23.779C196.419 23.9023 197.504 24.0873 198.565 24.334L198.454 25.259ZM224.667 7.721C223.804 7.30167 222.978 7.092 222.188 7.092C221.399 7.092 220.869 7.14133 220.597 7.24C220.4 8.572 220.301 11.1497 220.301 14.973C220.301 18.7963 220.437 21.7317 220.708 23.779C221.818 23.9023 222.842 24.0873 223.779 24.334L223.668 25.259C222.386 25.0863 220.906 25 219.228 25C217.576 25 216.12 25.0987 214.862 25.296L214.714 24.334C215.208 24.186 216.059 24.001 217.267 23.779C217.489 22.003 217.6 19.487 217.6 16.231V14.492C217.6 12.7653 217.465 10.348 217.193 7.24C216.922 7.14133 216.416 7.092 215.676 7.092C214.936 7.092 214.147 7.26467 213.308 7.61C213.062 8.37467 212.889 9.39833 212.79 10.681H211.828C211.828 8.65833 211.495 7.092 210.829 5.982L211.014 5.353C212.914 5.59967 215.578 5.723 219.006 5.723C222.435 5.723 225.198 5.58733 227.294 5.316L227.516 6.019C226.9 6.70967 226.48 7.388 226.258 8.054C226.036 8.69533 225.901 9.571 225.851 10.681H224.926C224.754 9.867 224.667 8.88033 224.667 7.721Z" fill="#C3C9CB"/>
</svg>
