<svg width="57" height="57" viewBox="0 0 57 57" fill="none" xmlns="http://www.w3.org/2000/svg">
<rect x="0.382812" y="0.291992" width="56.0535" height="55.8568" rx="27.9284" fill="#8B1E3F"/>
<path d="M36.8186 24.7155L32.7844 20.6813C32.4678 20.3649 32.0385 20.1872 31.5909 20.1873C31.1433 20.1874 30.7141 20.3653 30.3977 20.6818C30.0813 20.9984 29.9036 21.4277 29.9037 21.8753C29.9038 22.3229 30.0817 22.7521 30.3983 23.0685L33.1421 25.8124H23.25C22.8024 25.8124 22.3732 25.9902 22.0568 26.3067C21.7403 26.6231 21.5625 27.0523 21.5625 27.4999C21.5625 27.9474 21.7403 28.3767 22.0568 28.6931C22.3732 29.0096 22.8024 29.1874 23.25 29.1874H33.1421L30.3983 31.9313C30.0817 32.2477 29.9038 32.6769 29.9037 33.1245C29.9036 33.5721 30.0813 34.0014 30.3977 34.318C30.7141 34.6345 31.1433 34.8124 31.5909 34.8125C32.0385 34.8126 32.4678 34.6349 32.7844 34.3185L36.8186 30.2843C37.5558 29.5451 37.9697 28.5438 37.9697 27.4999C37.9697 26.456 37.5558 25.4547 36.8186 24.7155Z" fill="white"/>
</svg>
