<svg width="18" height="18" viewBox="0 0 18 18" fill="none" xmlns="http://www.w3.org/2000/svg">
<path d="M4.36457 14.4795C4.40507 14.5125 4.45157 14.535 4.49282 14.5672L1.27982 17.7802C1.13837 17.9169 0.948919 17.9925 0.752272 17.9907C0.555624 17.989 0.367515 17.9102 0.228459 17.7711C0.0894029 17.632 0.0105262 17.4439 0.00881741 17.2473C0.0071086 17.0506 0.0827044 16.8612 0.219323 16.7197L3.43307 13.506C3.70525 13.8651 4.0178 14.1917 4.36457 14.4795ZM7.49957 9.43949L12.2193 4.71974C12.2885 4.64811 12.3713 4.59097 12.4628 4.55167C12.5543 4.51236 12.6527 4.49167 12.7523 4.49081C12.8519 4.48994 12.9506 4.50892 13.0428 4.54663C13.135 4.58434 13.2187 4.64003 13.2891 4.71045C13.3595 4.78087 13.4152 4.8646 13.4529 4.95678C13.4906 5.04895 13.5096 5.14771 13.5088 5.24729C13.5079 5.34688 13.4872 5.44529 13.4479 5.5368C13.4086 5.6283 13.3515 5.71106 13.2798 5.78024L10.8101 8.24999H16.1996C16.9288 6.79585 17.502 5.26859 17.9096 3.69374C18.0294 3.19401 18.0185 2.67185 17.8781 2.17752C17.7376 1.68318 17.4723 1.23332 17.1077 0.871228C16.743 0.509132 16.2913 0.246992 15.796 0.110037C15.3007 -0.0269187 14.7784 -0.0340789 14.2796 0.0892453C11.8777 0.72735 9.59015 1.7365 7.49957 3.08024V9.43949ZM9.37457 9.74999C9.35582 9.74999 9.33932 9.74024 9.32057 9.73949L4.49282 14.5672C5.47764 15.3362 6.69188 15.7526 7.94132 15.75C8.76952 15.7468 9.58851 15.5761 10.349 15.248C11.1095 14.92 11.7957 14.4415 12.3663 13.8412C13.5356 12.6022 14.5537 11.2289 15.3993 9.74999H9.37457ZM5.99957 10.875V4.13024C5.27392 4.67305 4.58631 5.26494 3.94157 5.90174C3.37277 6.47398 2.92921 7.15828 2.63909 7.91116C2.34896 8.66403 2.21861 9.46903 2.25632 10.275C2.31004 11.4449 2.7207 12.5704 3.43307 13.5L6.01007 10.9222C6.00932 10.9102 5.99957 10.8937 5.99957 10.875Z" fill="#9A3BBB"/>
</svg>
