<svg width="267" height="215" viewBox="0 0 267 215" fill="none" xmlns="http://www.w3.org/2000/svg">
<path d="M0.976562 -6.42614L45.6312 -51.0808H89.5093V-6.42614L45.6312 37.4519V-6.42614H0.976562Z" fill="white" fill-opacity="0.5"/>
<path d="M0.976562 82.1066L45.6312 37.4519H89.5093V82.1066L45.6312 125.985V82.1066H0.976562Z" fill="white" fill-opacity="0.5"/>
<path d="M0.976562 170.639L45.6312 125.985H89.5093V170.639L45.6312 214.517V170.639H0.976562Z" fill="white" fill-opacity="0.5"/>
<path d="M89.5098 -6.42614L134.164 -51.0808H178.043V-6.42614L134.164 37.4519V-6.42614H89.5098Z" fill="white" fill-opacity="0.5"/>
<path d="M89.5098 82.1066L134.164 37.4519H178.043V82.1066L134.164 125.985V82.1066H89.5098Z" fill="white" fill-opacity="0.5"/>
<path d="M89.5098 170.639L134.164 125.985H178.043V170.639L134.164 214.517V170.639H89.5098Z" fill="white" fill-opacity="0.5"/>
<path d="M178.043 -6.42614L222.698 -51.0808H266.576V-6.42614L222.698 37.4519V-6.42614H178.043Z" fill="white" fill-opacity="0.5"/>
<path d="M178.043 82.1066L222.698 37.4519H266.576V82.1066L222.698 125.985V82.1066H178.043Z" fill="white" fill-opacity="0.5"/>
<path d="M178.043 170.639L222.698 125.985H266.576V170.639L222.698 214.517V170.639H178.043Z" fill="white" fill-opacity="0.5"/>
</svg>
