<svg width="57" height="57" viewBox="0 0 57 57" fill="none" xmlns="http://www.w3.org/2000/svg">
<rect x="0.382812" y="0.291992" width="56.0535" height="55.8568" rx="27.9284" fill="#C53A3E"/>
<path d="M36.8186 24.7158L32.7844 20.6815C32.4678 20.3651 32.0385 20.1874 31.5909 20.1875C31.1433 20.1876 30.7141 20.3655 30.3977 20.6821C30.0813 20.9986 29.9036 21.4279 29.9037 21.8755C29.9038 22.3231 30.0817 22.7523 30.3983 23.0688L33.1421 25.8126H23.25C22.8024 25.8126 22.3732 25.9904 22.0568 26.3069C21.7403 26.6234 21.5625 27.0526 21.5625 27.5001C21.5625 27.9477 21.7403 28.3769 22.0568 28.6934C22.3732 29.0099 22.8024 29.1876 23.25 29.1876H33.1421L30.3983 31.9315C30.0817 32.2479 29.9038 32.6772 29.9037 33.1247C29.9036 33.5723 30.0813 34.0016 30.3977 34.3182C30.7141 34.6348 31.1433 34.8127 31.5909 34.8128C32.0385 34.8129 32.4678 34.6352 32.7844 34.3188L36.8186 30.2845C37.5558 29.5454 37.9697 28.544 37.9697 27.5001C37.9697 26.4562 37.5558 25.4549 36.8186 24.7158Z" fill="white"/>
</svg>
