<svg width="18" height="18" viewBox="0 0 18 18" fill="none" xmlns="http://www.w3.org/2000/svg">
<path d="M4.36506 14.4795C4.40556 14.5125 4.45206 14.535 4.49331 14.5672L1.28031 17.7802C1.13886 17.9169 0.949408 17.9925 0.75276 17.9907C0.556113 17.989 0.368003 17.9102 0.228947 17.7711C0.0898912 17.632 0.0110145 17.4439 0.0093057 17.2473C0.00759688 17.0506 0.0831927 16.8612 0.219811 16.7197L3.43356 13.506C3.70574 13.8651 4.01829 14.1918 4.36506 14.4795ZM7.50006 9.43949L12.2198 4.71975C12.289 4.64811 12.3718 4.59098 12.4633 4.55167C12.5548 4.51236 12.6532 4.49167 12.7528 4.49081C12.8523 4.48994 12.9511 4.50892 13.0433 4.54663C13.1354 4.58434 13.2192 4.64003 13.2896 4.71045C13.36 4.78087 13.4157 4.86461 13.4534 4.95678C13.4911 5.04895 13.5101 5.14771 13.5092 5.2473C13.5084 5.34688 13.4877 5.4453 13.4484 5.5368C13.4091 5.6283 13.3519 5.71106 13.2803 5.78025L10.8106 8.24999H16.2001C16.9293 6.79586 17.5025 5.26859 17.9101 3.69375C18.0299 3.19401 18.019 2.67185 17.8786 2.17752C17.7381 1.68319 17.4728 1.23333 17.1082 0.871231C16.7435 0.509136 16.2918 0.246996 15.7965 0.11004C15.3012 -0.0269149 14.7789 -0.034075 14.2801 0.0892491C11.8782 0.727354 9.59064 1.7365 7.50006 3.08025V9.43949ZM9.37506 9.74999C9.35631 9.74999 9.33981 9.74024 9.32106 9.73949L4.49331 14.5672C5.47813 15.3362 6.69236 15.7526 7.94181 15.75C8.77001 15.7468 9.589 15.5761 10.3495 15.248C11.1099 14.92 11.7962 14.4415 12.3668 13.8412C13.5361 12.6022 14.5542 11.2289 15.3998 9.74999H9.37506ZM6.00006 10.875V4.13025C5.27441 4.67305 4.5868 5.26494 3.94206 5.90175C3.37326 6.47399 2.9297 7.15828 2.63958 7.91116C2.34945 8.66404 2.2191 9.46903 2.25681 10.275C2.31053 11.4449 2.72119 12.5704 3.43356 13.5L6.01056 10.9222C6.00981 10.9102 6.00006 10.8937 6.00006 10.875Z" fill="#C73A3E"/>
</svg>
