<svg width="80" height="80" viewBox="0 0 80 80" fill="none" xmlns="http://www.w3.org/2000/svg">
<circle cx="40" cy="40" r="40" fill="#E4E7EC"/>
<g clip-path="url(#clip0_169_2850)">
<path d="M40 43.7407C37.9289 43.7407 36.25 45.4197 36.25 47.4907V54.9907H43.75V47.4907C43.75 45.4197 42.0711 43.7407 40 43.7407Z" fill="#101828"/>
<path d="M46.25 47.4906V54.9906H51.25C53.3211 54.9906 55 53.3117 55 51.2406V39.8394C55.0003 39.19 54.7479 38.566 54.2962 38.0994L43.6738 26.6156C41.7995 24.5876 38.6361 24.4631 36.6082 26.3374C36.5119 26.4265 36.419 26.5193 36.33 26.6156L25.7263 38.0956C25.2609 38.5641 24.9998 39.1978 25 39.8581V51.2406C25 53.3117 26.6789 54.9906 28.75 54.9906H33.75V47.4906C33.7734 44.0821 36.5253 41.2987 39.848 41.2185C43.2818 41.1356 46.2238 43.9665 46.25 47.4906Z" fill="#101828"/>
<path d="M40 43.7407C37.9289 43.7407 36.25 45.4197 36.25 47.4907V54.9907H43.75V47.4907C43.75 45.4197 42.0711 43.7407 40 43.7407Z" fill="#101828"/>
</g>
<defs>
<clipPath id="clip0_169_2850">
<rect width="30" height="30" fill="white" transform="translate(25 25)"/>
</clipPath>
</defs>
</svg>
