<svg width="80" height="80" viewBox="0 0 80 80" fill="none" xmlns="http://www.w3.org/2000/svg">
<circle cx="40" cy="40" r="40" fill="#E4E7EC"/>
<g clip-path="url(#clip0_169_2858)">
<path d="M54.4188 43.4062C54.1599 43.0918 53.8278 42.8458 53.4516 42.6898C53.0754 42.5337 52.6667 42.4724 52.2613 42.5112C49.9284 42.6479 47.6753 43.4095 45.738 44.7163C43.8007 46.0231 42.2505 47.8269 41.25 49.9387V42.395C42.9966 42.0975 44.5819 41.1921 45.7256 39.8389C46.8692 38.4857 47.4978 36.7718 47.5 35C47.5 31.5087 45.0713 28.56 42.695 26.1362C42.5576 25.9955 42.4087 25.8663 42.25 25.75C40.8145 28.6099 40.0453 31.7578 40 34.9575C40.0056 35.1216 39.9788 35.2853 39.9211 35.4391C39.8635 35.5929 39.7761 35.7338 39.664 35.8538C39.5518 35.9738 39.4172 36.0706 39.2676 36.1386C39.1181 36.2065 38.9567 36.2444 38.7925 36.25C38.6284 36.2556 38.4647 36.2288 38.3109 36.1711C38.1571 36.1134 38.0162 36.026 37.8962 35.9139C37.7762 35.8018 37.6794 35.6671 37.6114 35.5176C37.5435 35.3681 37.5056 35.2066 37.5 35.0425C37.5133 31.5787 38.3017 28.1618 39.8075 25.0425C38.8666 25.0798 37.9741 25.4698 37.3075 26.135C34.9288 28.56 32.5 31.5087 32.5 35C32.5023 36.7718 33.1308 38.4857 34.2745 39.8389C35.4182 41.1921 37.0034 42.0975 38.75 42.395V49.94C37.7498 47.8279 36.1997 46.0237 34.2624 44.7167C32.3251 43.4096 30.0718 42.6479 27.7388 42.5112C27.3334 42.4726 26.9247 42.534 26.5486 42.6901C26.1724 42.8461 25.8403 43.092 25.5813 43.4062C25.3239 43.7118 25.1447 44.0754 25.0591 44.4656C24.9736 44.8558 24.9842 45.261 25.09 45.6462C27.6388 54.8187 39.4888 55 39.9925 55H40.0075C40.5075 55 52.3625 54.8187 54.9113 45.6462C55.0165 45.2609 55.0267 44.8557 54.9409 44.4656C54.8551 44.0754 54.676 43.7119 54.4188 43.4062Z" fill="#101828"/>
</g>
<defs>
<clipPath id="clip0_169_2858">
<rect width="30" height="30" fill="white" transform="translate(25 25)"/>
</clipPath>
</defs>
</svg>
