<svg width="80" height="80" viewBox="0 0 80 80" fill="none" xmlns="http://www.w3.org/2000/svg">
<circle cx="40" cy="40" r="40" fill="#E4E7EC"/>
<g clip-path="url(#clip0_169_2866)">
<path d="M45 30.0224C46.3947 30.0792 47.7458 30.524 48.9014 31.3069C50.0571 32.0897 50.9713 33.1795 51.5412 34.4537L53.4512 38.7499H46.25C45.9185 38.7499 45.6005 38.6182 45.3661 38.3838C45.1317 38.1494 45 37.8314 45 37.4999V30.0224ZM36.1775 51.2499C36.2233 51.4552 36.2476 51.6646 36.25 51.8749C36.25 52.7037 35.9208 53.4986 35.3347 54.0846C34.7487 54.6707 33.9538 54.9999 33.125 54.9999C32.2962 54.9999 31.5013 54.6707 30.9153 54.0846C30.3292 53.4986 30 52.7037 30 51.8749C30.0024 51.6646 30.0267 51.4552 30.0725 51.2499H36.1775ZM49.9275 51.2499C49.9733 51.4552 49.9976 51.6646 50 51.8749C50 52.7037 49.6708 53.4986 49.0847 54.0846C48.4987 54.6707 47.7038 54.9999 46.875 54.9999C46.0462 54.9999 45.2513 54.6707 44.6653 54.0846C44.0792 53.4986 43.75 52.7037 43.75 51.8749C43.7524 51.6646 43.7767 51.4552 43.8225 51.2499H49.9275ZM55 45.1524C55.0051 45.6393 54.9104 46.1221 54.7218 46.5709C54.5331 47.0198 54.2545 47.4253 53.9032 47.7623C53.5518 48.0994 53.1351 48.3609 52.6788 48.5308C52.2225 48.7006 51.7362 48.7752 51.25 48.7499H28.75C27.7554 48.7499 26.8016 48.3548 26.0983 47.6516C25.3951 46.9483 25 45.9945 25 44.9999V36.2499C25.002 34.5929 25.6611 33.0044 26.8328 31.8327C28.0044 30.661 29.593 30.0019 31.25 29.9999H36.5L37.325 26.6974C37.4467 26.2127 37.7268 25.7826 38.1208 25.4752C38.5149 25.1679 39.0003 25.001 39.5 25.001C39.9997 25.001 40.4851 25.1679 40.8792 25.4752C41.2732 25.7826 41.5533 26.2127 41.675 26.6974L42.5 29.9999V37.4999C42.5 38.4945 42.8951 39.4483 43.5983 40.1516C44.3016 40.8548 45.2554 41.2499 46.25 41.2499H54.4212C54.7414 42.5287 54.9352 43.8358 55 45.1524ZM37.5 39.9999C37.5 39.6684 37.3683 39.3505 37.1339 39.116C36.8995 38.8816 36.5815 38.7499 36.25 38.7499H35V37.4999C35 37.1684 34.8683 36.8505 34.6339 36.616C34.3995 36.3816 34.0815 36.2499 33.75 36.2499C33.4185 36.2499 33.1005 36.3816 32.8661 36.616C32.6317 36.8505 32.5 37.1684 32.5 37.4999V38.7499H31.25C30.9185 38.7499 30.6005 38.8816 30.3661 39.116C30.1317 39.3505 30 39.6684 30 39.9999C30 40.3314 30.1317 40.6494 30.3661 40.8838C30.6005 41.1182 30.9185 41.2499 31.25 41.2499H32.5V42.4999C32.5 42.8314 32.6317 43.1494 32.8661 43.3838C33.1005 43.6182 33.4185 43.7499 33.75 43.7499C34.0815 43.7499 34.3995 43.6182 34.6339 43.3838C34.8683 43.1494 35 42.8314 35 42.4999V41.2499H36.25C36.5815 41.2499 36.8995 41.1182 37.1339 40.8838C37.3683 40.6494 37.5 40.3314 37.5 39.9999Z" fill="#101828"/>
</g>
<defs>
<clipPath id="clip0_169_2866">
<rect width="30" height="30" fill="white" transform="translate(25 25)"/>
</clipPath>
</defs>
</svg>
