<svg width="17" height="16" viewBox="0 0 17 16" fill="none" xmlns="http://www.w3.org/2000/svg">
<path d="M13.8372 8.99219L12.8945 9.93485L14.4225 11.4635H14.1679C11.9119 11.4635 10.4772 10.4422 9.20386 9.12485L9.00386 9.35685C8.7852 9.61019 8.55986 9.87085 8.3252 10.1329C9.04999 10.9721 9.94752 11.6449 10.9564 12.1051C11.9653 12.5653 13.0616 12.8022 14.1705 12.7995H14.4225L12.8939 14.3282L13.8365 15.2709L16.0319 13.0755C16.2818 12.8255 16.4222 12.4864 16.4222 12.1329C16.4222 11.7793 16.2818 11.4402 16.0319 11.1902L13.8372 8.99219Z" fill="#8B1E3F"/>
<path d="M14.1682 4.79685H14.4222L12.8942 6.32552L13.8368 7.26819L16.0322 5.07285C16.2821 4.82282 16.4226 4.48374 16.4226 4.13019C16.4226 3.77664 16.2821 3.43756 16.0322 3.18752L13.8368 0.992188L12.8942 1.93485L14.4222 3.46352H14.1675C10.8628 3.46352 9.05617 5.24352 7.41684 7.11552C5.79751 5.28685 3.85084 3.46352 0.395508 3.46352V4.79685C3.37151 4.79685 4.97751 6.35419 6.53484 8.13019C4.97751 9.90619 3.37151 11.4635 0.395508 11.4635V12.7969C4.26751 12.7969 6.24617 10.5062 7.99551 8.48619C9.63151 6.58885 11.1802 4.79685 14.1682 4.79685Z" fill="#8B1E3F"/>
</svg>
