<svg width="17" height="17" viewBox="0 0 17 17" fill="none" xmlns="http://www.w3.org/2000/svg">
<g clip-path="url(#clip0_459_7193)">
<path d="M11.8291 0.741211C11.0784 0.752888 10.344 0.962447 9.70025 1.34873C9.05645 1.735 8.52598 2.28432 8.16241 2.94121C7.79883 2.28432 7.26836 1.735 6.62457 1.34873C5.98077 0.962447 5.24644 0.752888 4.49574 0.741211C3.29903 0.793205 2.17154 1.31671 1.3596 2.19737C0.547647 3.07802 0.11724 4.24423 0.162407 5.44121C0.162407 9.95788 7.46641 15.1745 7.77707 15.3959L8.16241 15.6685L8.54774 15.3959C8.85841 15.1759 16.1624 9.95788 16.1624 5.44121C16.2076 4.24423 15.7772 3.07802 14.9652 2.19737C14.1533 1.31671 13.0258 0.793205 11.8291 0.741211ZM8.16241 14.0272C5.99374 12.4072 1.49574 8.42721 1.49574 5.44121C1.45017 4.59769 1.73998 3.77036 2.30198 3.13968C2.86398 2.50899 3.65256 2.12611 4.49574 2.07454C5.33892 2.12611 6.1275 2.50899 6.6895 3.13968C7.2515 3.77036 7.54131 4.59769 7.49574 5.44121H8.82907C8.7835 4.59769 9.07332 3.77036 9.63532 3.13968C10.1973 2.50899 10.9859 2.12611 11.8291 2.07454C12.6723 2.12611 13.4608 2.50899 14.0228 3.13968C14.5848 3.77036 14.8746 4.59769 14.8291 5.44121C14.8291 8.42854 10.3311 12.4072 8.16241 14.0272Z" fill="#8B1E3F"/>
</g>
<defs>
<clipPath id="clip0_459_7193">
<rect width="16" height="16" fill="white" transform="translate(0.162598 0.129883)"/>
</clipPath>
</defs>
</svg>
