<svg width="52" height="52" viewBox="0 0 52 52" fill="none" xmlns="http://www.w3.org/2000/svg">
<path d="M30.4416 45.0976C29.8438 45.0976 29.3424 44.8951 28.9373 44.49C28.5322 44.0849 28.3303 43.5841 28.3317 42.9877C28.3317 42.3899 28.5343 41.8884 28.9394 41.4833C29.3445 41.0782 29.8452 40.8764 30.4416 40.8778C32.0944 40.8778 33.5622 40.5521 34.8451 39.9009C36.1279 39.2496 36.77 38.5203 36.7714 37.7129C36.7714 37.2206 36.5429 36.7634 36.0857 36.3414C35.6285 35.9194 34.9956 35.5326 34.1868 35.181L37.2989 32.0688C38.4242 32.737 39.3209 33.5282 39.9891 34.4425C40.6572 35.3568 40.9913 36.4469 40.9913 37.7129C40.9913 40.0338 39.8836 41.8448 37.6681 43.1459C35.4527 44.4471 33.0439 45.0976 30.4416 45.0976ZM10.5556 28.9567C9.53576 28.3589 8.72695 27.6647 8.12914 26.8742C7.53133 26.0836 7.23242 25.125 7.23242 23.9983C7.23242 22.5214 7.77749 21.2814 8.86762 20.2785C9.95775 19.2756 11.9094 18.1595 14.7227 16.9301C16.9381 15.9103 18.3539 15.1985 18.97 14.7948C19.5861 14.3911 19.8934 13.9424 19.892 13.4487C19.892 12.886 19.5488 12.3937 18.8624 11.9717C18.1759 11.5497 17.1125 11.3388 15.6721 11.3388C14.793 11.3388 14.0545 11.4443 13.4567 11.6552C12.8589 11.8662 12.3138 12.2179 11.8215 12.7102C11.4347 13.097 10.96 13.3256 10.3973 13.3959C9.83467 13.4663 9.32477 13.308 8.86762 12.9212C8.41047 12.5695 8.14672 12.1124 8.07639 11.5497C8.00606 10.9871 8.16431 10.4772 8.55113 10.02C9.21927 9.21124 10.1779 8.52552 11.427 7.96287C12.676 7.40022 14.0911 7.1189 15.6721 7.1189C18.2041 7.1189 20.2437 7.69069 21.7909 8.83427C23.3382 9.97785 24.1119 11.516 24.1119 13.4487C24.1119 14.8201 23.602 16.0509 22.5822 17.1411C21.5624 18.2312 19.5052 19.4444 16.4106 20.7807C14.371 21.6598 13.0347 22.3104 12.4017 22.7324C11.7688 23.1544 11.4523 23.5763 11.4523 23.9983C11.4523 24.3148 11.6541 24.6229 12.0578 24.9225C12.4615 25.2221 13.0157 25.5119 13.7205 25.7918L10.5556 28.9567ZM40.6748 22.7324L31.7076 13.7652L33.923 11.5497C34.767 10.7058 35.7784 10.2838 36.9571 10.2838C38.1358 10.2838 39.1289 10.7058 39.9363 11.5497L42.8902 14.5036C43.7342 15.3125 44.1562 16.3062 44.1562 17.485C44.1562 18.6637 43.7342 19.6744 42.8902 20.5169L40.6748 22.7324ZM13.5622 40.8778H16.5161L31.7076 25.6863L28.7537 22.7324L13.5622 37.9239V40.8778ZM9.34235 45.0976V36.1304L28.7537 16.7191L37.7209 25.6863L18.3095 45.0976H9.34235Z" fill="black"/>
</svg>
