<svg width="57" height="56" viewBox="0 0 57 56" fill="none" xmlns="http://www.w3.org/2000/svg">
<rect width="56.0535" height="55.8568" rx="27.9284" fill="#508FDA"/>
<g clip-path="url(#clip0_1704_6397)">
<path d="M36.4358 24.4236L32.4016 20.3894C32.085 20.073 31.6557 19.8952 31.2081 19.8954C30.7605 19.8955 30.3313 20.0734 30.0149 20.3899C29.6985 20.7065 29.5208 21.1358 29.5209 21.5834C29.521 22.031 29.6989 22.4602 30.0154 22.7766L32.7593 25.5205H22.8672C22.4196 25.5205 21.9904 25.6983 21.6739 26.0148C21.3575 26.3312 21.1797 26.7604 21.1797 27.208C21.1797 27.6555 21.3575 28.0848 21.6739 28.4012C21.9904 28.7177 22.4196 28.8955 22.8672 28.8955H32.7593L30.0154 31.6394C29.6989 31.9558 29.521 32.385 29.5209 32.8326C29.5208 33.2802 29.6985 33.7095 30.0149 34.0261C30.3313 34.3426 30.7605 34.5205 31.2081 34.5206C31.6557 34.5207 32.085 34.343 32.4016 34.0266L36.4358 29.9924C37.173 29.2532 37.5869 28.2519 37.5869 27.208C37.5869 26.1641 37.173 25.1628 36.4358 24.4236V24.4236Z" fill="white"/>
</g>
<defs>
<clipPath id="clip0_1704_6397">
<rect width="18" height="15" fill="white" transform="translate(20.6172 19.708)"/>
</clipPath>
</defs>
</svg>
