<svg width="187" height="50" viewBox="0 0 187 50" fill="none" xmlns="http://www.w3.org/2000/svg">
<g clip-path="url(#clip0_1062_6683)">
<path d="M37.9212 12.35C37.6799 13.0825 39.4294 36.3178 39.4294 36.3178L40.4033 12.35C40.1016 11.6174 38.1539 11.6174 37.9212 12.35ZM39.1708 16.3748C39.1708 16.3748 38.49 13.2549 38.7399 12.8498C38.9899 12.4448 39.4122 12.4189 39.5501 12.7119C39.5736 13.9438 39.4462 15.1739 39.1708 16.3748Z" fill="#FF0062"/>
<path d="M39.5068 15.0305H53.2963C54.2231 15.4252 55.0222 16.0691 55.6049 16.8907C56.1876 17.7123 56.5311 18.6794 56.5972 19.6845C56.8213 23.1922 53.8996 25.7949 50.7108 26.2345H53.0378C57.0281 26.2345 58.4415 25.1744 59.855 22.4165C61.0874 20.2791 59.674 14.2807 54.0978 14.2807H34.3616L27.036 21.6753L19.8223 14.229H9.6181V14.9788H11.2901C13.9877 14.9788 16.3319 15.3925 16.3319 18.7795V29.4836C16.3319 33.7498 15.4011 34.9563 12.6346 35.5165H9.6181V36.3784H19.8223V15.5132L29.0268 24.7004L38.7139 15.0133L39.5068 15.0305Z" fill="#FF0062"/>
<path d="M39.9379 18.7194C40.1102 20.331 43.1698 28.1997 45.5398 30.9403C47.9099 33.681 55.882 40.7309 53.5119 49.4441C54.8498 46.2444 55.3167 42.7475 54.865 39.3088C54.1583 33.3794 48.9355 29.7338 47.2204 28.0445C45.5054 26.3553 41.696 23.2182 40.0068 18.4695C40.0068 18.4695 39.9379 18.2281 39.9379 18.1937C39.9379 18.1592 39.9379 18.7194 39.9379 18.7194Z" fill="#FF0062"/>
<path d="M47.8754 26.0103C51.5297 28.2769 57.1144 33.7065 57.1489 40.834C57.1489 40.834 57.1489 45.531 56.5628 46.6256C56.5628 46.6256 58.1659 45.2638 58.6743 39.3774C59.1656 34.3098 53.8308 27.1048 47.7806 26.0103" fill="#FF0062"/>
<path d="M54.8478 28.1477C57.3385 29.8197 62.6561 35.482 59.6224 43.0404C62.3544 39.7395 61.8977 34.715 59.5104 31.2676C58.4089 29.6731 56.7419 28.5576 54.8478 28.1477Z" fill="#FF0062"/>
<path d="M40.386 12.3502C40.2481 11.9796 39.6879 11.7986 39.1363 11.7986V12.4881C39.2155 12.4634 39.3009 12.4682 39.3769 12.5014C39.4529 12.5346 39.5143 12.5942 39.55 12.669C39.577 13.9153 39.4497 15.1601 39.1708 16.375C39.1708 16.375 39.1708 16.3146 39.1708 16.2198V32.5949C39.3345 34.8357 39.4466 36.3267 39.4466 36.3267L40.386 12.3502Z" fill="#FF0062"/>
<path d="M65.3709 35.4649V16.1251C64.998 15.7697 64.5141 15.5536 64.0005 15.5132C63.9708 15.5132 63.9423 15.5014 63.9213 15.4804C63.9003 15.4594 63.8885 15.4309 63.8885 15.4012C63.8885 15.3715 63.9003 15.343 63.9213 15.322C63.9423 15.3009 63.9708 15.2891 64.0005 15.2891H69.5336C69.5571 15.2874 69.5807 15.2931 69.6008 15.3054C69.6209 15.3178 69.6366 15.3362 69.6456 15.3581L76.5404 31.8021L83.4351 15.3581C83.4441 15.3362 83.4598 15.3178 83.4799 15.3054C83.5001 15.2931 83.5236 15.2874 83.5471 15.2891H88.7699C88.7996 15.2891 88.8281 15.3009 88.8491 15.322C88.8702 15.343 88.882 15.3715 88.882 15.4012C88.882 15.4309 88.8702 15.4594 88.8491 15.4804C88.8281 15.5014 88.7996 15.5132 88.7699 15.5132C88.4042 15.5132 88.0535 15.6585 87.7949 15.9171C87.5362 16.1757 87.391 16.5264 87.391 16.8922V35.4649C87.391 35.8306 87.5362 36.1814 87.7949 36.44C88.0535 36.6986 88.4042 36.8438 88.7699 36.8438C88.7996 36.8438 88.8281 36.8557 88.8491 36.8767C88.8702 36.8977 88.882 36.9262 88.882 36.9559C88.882 36.9856 88.8702 37.0141 88.8491 37.0351C88.8281 37.0561 88.7996 37.0679 88.7699 37.0679H82.0389C82.0092 37.0679 81.9807 37.0561 81.9597 37.0351C81.9387 37.0141 81.9269 36.9856 81.9269 36.9559C81.9269 36.9262 81.9387 36.8977 81.9597 36.8767C81.9807 36.8557 82.0092 36.8438 82.0389 36.8438C82.4031 36.8416 82.7517 36.6953 83.0084 36.4369C83.2652 36.1786 83.4093 35.8291 83.4092 35.4649V16.0045L76.6352 32.1727L74.8167 36.4819L74.6098 36.9731C74.6129 36.9873 74.6129 37.002 74.6098 37.0162C74.6004 37.0208 74.5901 37.0232 74.5797 37.0232C74.5692 37.0232 74.5589 37.0208 74.5495 37.0162H74.4805V36.9645L66.0086 16.9697C65.9065 16.7432 65.7698 16.5339 65.6036 16.3492V35.4649C65.6036 35.8291 65.7477 36.1786 66.0044 36.4369C66.2611 36.6953 66.6097 36.8416 66.9739 36.8438C67.0036 36.8438 67.0321 36.8557 67.0531 36.8767C67.0741 36.8977 67.0859 36.9262 67.0859 36.9559C67.0859 36.9856 67.0741 37.0141 67.0531 37.0351C67.0321 37.0561 67.0036 37.0679 66.9739 37.0679H64.0005C63.9708 37.0679 63.9423 37.0561 63.9213 37.0351C63.9003 37.0141 63.8885 36.9856 63.8885 36.9559C63.8885 36.9262 63.9003 36.8977 63.9213 36.8767C63.9423 36.8557 63.9708 36.8438 64.0005 36.8438C64.3648 36.8416 64.7133 36.6953 64.97 36.4369C65.2268 36.1786 65.3709 35.8291 65.3709 35.4649Z" fill="#FF0062"/>
<path d="M89.6317 26.2002C89.63 24.006 90.2791 21.8607 91.4969 20.0355C92.7146 18.2103 94.4464 16.7873 96.473 15.9464C98.4996 15.1056 100.73 14.8847 102.882 15.3117C105.035 15.7387 107.012 16.7944 108.564 18.3453C110.116 19.8962 111.173 21.8726 111.602 24.0244C112.031 26.1763 111.811 28.407 110.972 30.4342C110.133 32.4615 108.711 34.1944 106.887 35.4135C105.063 36.6327 102.918 37.2835 100.724 37.2835C97.7841 37.2812 94.9655 36.113 92.8861 34.0352C90.8067 31.9575 89.6363 29.1397 89.6317 26.2002ZM107.549 26.2002C107.549 20.2103 104.49 15.3409 100.724 15.3409C96.9574 15.3409 93.8893 20.2103 93.8893 26.2002C93.8893 32.19 96.9316 37.0594 100.698 37.0594C104.464 37.0594 107.524 32.1814 107.524 26.2002H107.549Z" fill="#FF0062"/>
<path d="M114.031 35.4648V16.9265C114.031 16.5608 113.885 16.2101 113.627 15.9514C113.368 15.6928 113.017 15.5476 112.652 15.5476C112.622 15.5476 112.593 15.5358 112.572 15.5147C112.551 15.4937 112.54 15.4652 112.54 15.4355C112.54 15.4058 112.551 15.3773 112.572 15.3563C112.593 15.3353 112.622 15.3235 112.652 15.3235H119.374C119.404 15.3235 119.432 15.3353 119.453 15.3563C119.474 15.3773 119.486 15.4058 119.486 15.4355C119.486 15.4652 119.474 15.4937 119.453 15.5147C119.432 15.5358 119.404 15.5476 119.374 15.5476C119.008 15.5476 118.658 15.6928 118.399 15.9514C118.14 16.2101 117.995 16.5608 117.995 16.9265V35.4648C117.995 35.8305 118.14 36.1812 118.399 36.4398C118.658 36.6984 119.008 36.8437 119.374 36.8437C119.404 36.8437 119.432 36.8555 119.453 36.8765C119.474 36.8975 119.486 36.926 119.486 36.9558C119.486 36.9855 119.474 37.014 119.453 37.035C119.432 37.056 119.404 37.0678 119.374 37.0678H112.652C112.622 37.0678 112.593 37.056 112.572 37.035C112.551 37.014 112.54 36.9855 112.54 36.9558C112.54 36.926 112.551 36.8975 112.572 36.8765C112.593 36.8555 112.622 36.8437 112.652 36.8437C113.017 36.8437 113.368 36.6984 113.627 36.4398C113.885 36.1812 114.031 35.8305 114.031 35.4648Z" fill="#FF0062"/>
<path d="M122.511 35.4648V16.9265C122.511 16.5623 122.367 16.2128 122.11 15.9545C121.853 15.6961 121.505 15.5498 121.141 15.5476C121.111 15.5476 121.083 15.5358 121.062 15.5147C121.04 15.4937 121.029 15.4652 121.029 15.4355C121.029 15.4058 121.04 15.3773 121.062 15.3563C121.083 15.3353 121.111 15.3235 121.141 15.3235H132.181C133.895 15.3253 135.559 15.8946 136.915 16.9423C138.271 17.9901 139.242 19.4574 139.676 21.1151C140.11 22.7728 139.983 24.5275 139.315 26.1054C138.646 27.6833 137.474 28.9954 135.982 29.8369L139.55 35.4734C139.81 35.854 140.15 36.1736 140.546 36.4101C140.941 36.6467 141.384 36.7946 141.842 36.8437C141.872 36.8437 141.9 36.8555 141.921 36.8765C141.942 36.8975 141.954 36.926 141.954 36.9558C141.954 36.9855 141.942 37.014 141.921 37.035C141.9 37.056 141.872 37.0678 141.842 37.0678H135.93C135.911 37.0671 135.893 37.0621 135.876 37.0531C135.86 37.0442 135.846 37.0315 135.835 37.0161L131.965 30.897H126.476V35.4648C126.476 35.8305 126.621 36.1812 126.879 36.4398C127.138 36.6984 127.489 36.8437 127.854 36.8437C127.884 36.8437 127.913 36.8555 127.934 36.8765C127.955 36.8975 127.967 36.926 127.967 36.9558C127.967 36.9855 127.955 37.014 127.934 37.035C127.913 37.056 127.884 37.0678 127.854 37.0678H121.141C121.111 37.0678 121.083 37.056 121.062 37.035C121.04 37.014 121.029 36.9855 121.029 36.9558C121.029 36.926 121.04 36.8975 121.062 36.8765C121.083 36.8555 121.111 36.8437 121.141 36.8437C121.505 36.8414 121.853 36.6952 122.11 36.4368C122.367 36.1784 122.511 35.829 122.511 35.4648ZM126.476 30.6643H132.172C133.181 30.6126 134.12 29.8025 134.827 28.3373C135.564 26.6966 135.929 24.913 135.895 23.1146C135.895 19.0553 134.224 15.6682 132.172 15.5648H126.476V30.6643Z" fill="#FF0062"/>
<path d="M143.454 36.9561C143.454 36.9406 143.457 36.9253 143.463 36.9111C143.469 36.8969 143.478 36.8841 143.49 36.8736C143.501 36.8631 143.514 36.855 143.529 36.8499C143.544 36.8448 143.559 36.8428 143.575 36.844C144.006 36.8089 144.42 36.6584 144.773 36.4082C145.127 36.158 145.406 35.8173 145.583 35.422L151.952 20.219L153.572 16.3752L153.977 15.4186C153.973 15.4044 153.973 15.3896 153.977 15.3755H154.029H154.098V15.4272L162.466 35.4047C162.651 35.8234 162.95 36.181 163.33 36.4358C163.71 36.6906 164.155 36.8322 164.612 36.844C164.642 36.844 164.67 36.8558 164.691 36.8768C164.712 36.8978 164.724 36.9263 164.724 36.9561C164.724 36.9858 164.712 37.0143 164.691 37.0353C164.67 37.0563 164.642 37.0681 164.612 37.0681H157.588C157.558 37.0681 157.53 37.0563 157.509 37.0353C157.488 37.0143 157.476 36.9858 157.476 36.9561C157.476 36.9263 157.488 36.8978 157.509 36.8768C157.53 36.8558 157.558 36.844 157.588 36.844C157.732 36.8539 157.876 36.8274 158.007 36.7672C158.138 36.707 158.252 36.6149 158.338 36.4993C158.417 36.3461 158.459 36.1762 158.459 36.0037C158.459 35.8312 158.417 35.6613 158.338 35.5082L155.339 28.3549C153.406 28.4497 151.536 29.0695 149.929 30.1477C148.323 31.2259 147.041 32.7215 146.22 34.4739L145.789 35.4909C145.708 35.6434 145.665 35.8136 145.665 35.9865C145.665 36.1594 145.708 36.3296 145.789 36.482C145.875 36.5964 145.987 36.6877 146.117 36.7479C146.246 36.808 146.388 36.8351 146.531 36.8268C146.56 36.8268 146.589 36.8386 146.61 36.8596C146.631 36.8806 146.643 36.9091 146.643 36.9388C146.643 36.9685 146.631 36.997 146.61 37.018C146.589 37.039 146.56 37.0509 146.531 37.0509H143.557C143.532 37.0492 143.508 37.0389 143.489 37.0216C143.47 37.0044 143.458 36.9813 143.454 36.9561ZM155.227 28.1308L152.055 20.5638L146.884 32.8278C147.822 31.458 149.062 30.3221 150.508 29.5077C151.955 28.6933 153.569 28.2222 155.227 28.1308Z" fill="#FF0062"/>
<path d="M167.723 35.4648V16.9266C167.728 16.7419 167.695 16.5581 167.628 16.3863C167.56 16.2144 167.458 16.0579 167.329 15.926C167.199 15.7942 167.045 15.6897 166.874 15.6188C166.704 15.5479 166.521 15.5119 166.336 15.5131C166.306 15.5131 166.278 15.5013 166.257 15.4803C166.236 15.4593 166.224 15.4308 166.224 15.4011C166.224 15.3714 166.236 15.3429 166.257 15.3219C166.278 15.3009 166.306 15.2891 166.336 15.2891H173.058C173.088 15.2891 173.116 15.3009 173.137 15.3219C173.158 15.3429 173.17 15.3714 173.17 15.4011C173.17 15.4308 173.158 15.4593 173.137 15.4803C173.116 15.5013 173.088 15.5131 173.058 15.5131C172.692 15.5131 172.342 15.6584 172.083 15.917C171.825 16.1756 171.679 16.5264 171.679 16.8921V35.4648C171.679 35.8305 171.825 36.1813 172.083 36.4399C172.342 36.6985 172.692 36.8438 173.058 36.8438C173.088 36.8438 173.116 36.8556 173.137 36.8766C173.158 36.8976 173.17 36.9261 173.17 36.9558C173.17 36.9855 173.158 37.014 173.137 37.035C173.116 37.056 173.088 37.0678 173.058 37.0678H166.336C166.306 37.0678 166.278 37.056 166.257 37.035C166.236 37.014 166.224 36.9855 166.224 36.9558C166.224 36.9261 166.236 36.8976 166.257 36.8766C166.278 36.8556 166.306 36.8438 166.336 36.8438C166.518 36.8449 166.698 36.8101 166.866 36.7413C167.034 36.6725 167.188 36.5711 167.316 36.4429C167.445 36.3148 167.548 36.1624 167.618 35.9945C167.687 35.8267 167.723 35.6466 167.723 35.4648Z" fill="#FF0062"/>
</g>
<defs>
<clipPath id="clip0_1062_6683">
<rect width="186.598" height="49.444" fill="white"/>
</clipPath>
</defs>
</svg>
