<svg width="204" height="50" viewBox="0 0 204 50" fill="none" xmlns="http://www.w3.org/2000/svg">
<path d="M7.79854 39.2632C8.56073 40.1931 9.32293 41.1433 10.1105 42.0986H10.3646C10.3646 39.69 12.3057 38.2368 13.0933 36.0874C13.4417 37.2207 13.4924 38.4247 13.2406 39.5833C13.1352 40.1837 12.9892 40.7761 12.8036 41.3567C12.1939 43.3892 12.5496 44.5173 14.2416 45.7978C14.569 46.0156 14.8489 46.2974 15.0648 46.626C14.7498 46.4431 14.4246 46.2754 14.1197 46.0823C8.02212 42.1646 4.24671 36.5447 2.06174 29.7612C0.230354 23.988 -0.390647 17.8991 0.237553 11.875C0.293448 11.2856 0.486536 11.0722 1.08613 11.0874C2.68166 11.123 4.27719 11.0874 5.95402 11.0874C5.88289 11.9106 5.36459 12.0478 4.765 12.0528C3.60646 12.0528 2.45301 12.0528 1.20808 12.0528C0.757695 17.606 1.27346 23.1952 2.73248 28.5722L6.70606 26.6768C6.27194 28.1815 5.3382 29.4934 4.0587 30.3963C3.94942 30.4448 3.85234 30.517 3.77455 30.6078C3.69676 30.6986 3.64022 30.8056 3.60906 30.921C3.57789 31.0364 3.57289 31.1573 3.59442 31.2749C3.61595 31.3924 3.66346 31.5037 3.73349 31.6006C4.19099 32.7106 4.72585 33.7871 5.3341 34.8222C5.40524 34.3496 5.46114 33.8719 5.54752 33.3994C5.7483 32.3105 6.18721 31.2795 6.83284 30.38C7.47848 29.4805 8.3149 28.7348 9.28228 28.1961C10.5831 27.4085 10.8067 26.6717 10.4967 25.2744L8.09834 28.2012L7.77313 28.0234C7.54428 26.8739 7.724 25.6805 8.28126 24.6494C8.87578 23.6331 9.53635 22.6575 10.0394 21.8699C10.7203 22.8862 11.5231 24.0803 12.2904 25.2845C12.4333 25.5268 12.4989 25.8069 12.4784 26.0874C12.4437 26.7173 12.2731 27.3323 11.9784 27.8901C11.6837 28.4479 11.2719 28.9354 10.7711 29.3191C10.1817 29.7866 9.577 30.2439 8.95708 30.6707C8.438 30.9991 8.00008 31.4408 7.67621 31.9627C7.35234 32.4846 7.15095 33.073 7.08716 33.6839C6.96013 35.0051 6.97537 36.3415 6.97029 37.6728C7.02802 37.9855 7.13432 38.2872 7.28533 38.5671C8.64204 37.002 9.12476 35.2896 8.70301 33.5213C8.35749 32.0528 9.21114 31.4024 9.9835 30.5488C10.9439 32.9065 10.1004 36.2957 7.79854 39.2632Z" fill="#747759"/>
<path d="M37.9308 12.2154C36.2743 11.7073 34.4806 12.7235 32.885 11.2805C33.0894 11.2039 33.3003 11.146 33.5151 11.1077C35.0395 11.1077 36.5893 11.0772 38.1289 11.1077C38.3678 11.1077 38.7895 11.4227 38.8098 11.6158C39.7295 22.3272 37.9613 32.3323 30.9287 40.8994C29.1608 43.0144 27.0643 44.8313 24.7194 46.2805C24.505 46.4285 24.2478 46.5017 23.9877 46.4888C24.257 46.2906 24.4958 46.0721 24.7956 45.8943C26.945 44.5528 26.7214 43.1656 26.32 41.2449C26.0405 39.812 25.9694 38.3333 25.8118 36.875C25.8378 36.5753 25.9009 36.28 25.9999 35.9959C26.7875 38.2418 28.7742 39.6544 28.7438 42.0935L28.9826 42.1341L31.3556 39.253C28.9064 36.7835 28.4846 33.8364 29.0131 30.442C29.882 31.4075 30.761 32.0274 30.4206 33.4908C29.9988 35.2794 30.4612 36.9969 31.818 38.5721C31.969 38.289 32.0801 37.9863 32.1482 37.6727C32.1838 36.6311 32.2143 35.5843 32.1482 34.5427C32.1349 33.6955 31.904 32.8659 31.4778 32.1336C31.0516 31.4013 30.4443 30.7908 29.7143 30.3607C29.2281 30.0487 28.7598 29.7094 28.3118 29.3445C27.8207 28.9556 27.4177 28.4669 27.1295 27.9107C26.8413 27.3544 26.6745 26.7434 26.6401 26.1179C26.627 25.8379 26.7016 25.5607 26.8535 25.3252C27.6208 24.1158 28.4135 22.9217 29.0791 21.9105C29.5873 22.7032 30.2529 23.7093 30.8728 24.7408C31.4927 25.7723 31.4369 26.9055 31.3403 28.191C30.1445 27.5517 29.2363 26.4819 28.7997 25.1981C28.1747 26.2957 28.5049 27.4288 29.7346 28.1809C31.5436 29.2784 32.885 30.7215 33.4287 32.8201C33.5592 33.5271 33.7531 34.221 34.008 34.8933L35.695 30.9248C34.1269 29.9596 32.9583 28.4627 32.4023 26.7073L36.4064 28.6026C37.8537 23.2686 38.3694 17.7248 37.9308 12.2154Z" fill="#747759"/>
<path d="M24.7193 43.9584L22.9714 42.871C22.1321 44.4763 21.6224 46.2334 21.4724 48.0387L20.6035 47.2257C20.3646 48.1911 20.451 49.2582 19.5516 50C18.637 49.2531 18.7031 48.1911 18.51 47.2511L17.8087 47.937C17.2701 46.1738 16.7518 44.4665 16.2437 42.7846L14.2671 44.0193L14.0791 43.8009C15.0953 42.7033 15.2986 41.3313 15.4663 39.9441C15.6187 38.6789 15.7407 37.4035 15.9337 36.1433C16.0858 35.183 16.4352 34.2645 16.9599 33.4459C17.4847 32.6273 18.1734 31.9264 18.9825 31.3872C19.1307 31.2508 19.3248 31.1751 19.5262 31.1751C19.7277 31.1751 19.9217 31.2508 20.0699 31.3872C20.8904 31.9355 21.586 32.6506 22.1113 33.4859C22.6367 34.3212 22.9799 35.2578 23.1187 36.2348C23.3118 37.6423 23.3982 39.0702 23.6675 40.4624C23.9571 41.621 24.3738 42.7185 24.7193 43.9584ZM20.3545 44.3801C20.5882 43.1047 20.8321 41.9563 20.9947 40.8232C21.2007 39.7208 21.2994 38.6011 21.2894 37.4797C21.2134 35.9454 20.5938 34.4882 19.5415 33.3689C19.3902 33.5291 19.2493 33.6988 19.1197 33.8771C18.4546 34.8658 18.0113 35.9867 17.8201 37.1628C17.6289 38.339 17.6943 39.5426 18.012 40.6911C18.2661 41.7531 18.3677 42.8506 18.5201 43.933C18.5201 44.0803 18.5862 44.2226 18.6522 44.5021L19.5161 43.3283L20.3545 44.3801Z" fill="#747759"/>
<path d="M19.5668 14.2124C20.2476 13.0793 20.7863 12.0529 21.457 11.1179C21.7589 10.7275 22.199 10.4674 22.6867 10.3913C23.5832 10.3706 24.4797 10.4335 25.3645 10.5793C25.7114 10.6143 26.0394 10.7543 26.3046 10.9807C27.641 12.312 27.8696 13.5925 25.9133 14.4157C24.9856 14.7136 24.0083 14.8258 23.0373 14.746C22.7873 14.7004 22.5295 14.7291 22.2956 14.8284C22.0617 14.9277 21.862 15.0934 21.7212 15.3049C21.4062 15.8131 21.0556 16.2551 20.7456 16.7429C20.526 17.0504 20.3748 17.4012 20.302 17.772C20.2293 18.1427 20.2367 18.5247 20.3239 18.8923C20.6152 19.8945 20.5742 20.9641 20.207 21.9411C20.146 22.0885 20.2883 22.3527 20.3899 22.5407C20.6796 23.0488 20.9946 23.557 21.2995 24.0651L20.7913 23.7094C20.5305 24.2354 20.2369 24.7445 19.9123 25.2338C19.8057 25.2925 19.6859 25.3233 19.5642 25.3233C19.4425 25.3233 19.3228 25.2925 19.2161 25.2338C18.9038 24.7734 18.622 24.2931 18.3726 23.7958L17.8239 24.1159L18.9773 22.0834C18.4387 21.0671 18.5911 19.812 18.8503 18.5265C19.0637 17.4746 18.3422 16.7328 17.8645 15.9198C17.3869 15.1068 16.7466 14.5478 15.5728 14.7968C14.7416 14.8726 13.9045 14.7381 13.1389 14.4055C12.7671 14.3099 12.436 14.0972 12.1945 13.7989C11.9529 13.5006 11.8137 13.1325 11.7974 12.749C11.7974 11.9767 12.6562 10.7978 13.4285 10.6708C14.541 10.4956 15.6662 10.414 16.7924 10.4269C17.1023 10.4269 17.4987 10.808 17.7019 11.1128C18.3168 12.0732 18.8808 13.059 19.5668 14.2124Z" fill="#747759"/>
<path d="M29.1096 38.3283C27.7466 37.4288 26.7444 36.0776 26.2793 34.5123C25.7254 32.5306 25.2325 30.5082 23.7894 28.9228C23.5593 28.6502 23.2533 28.4521 22.9104 28.3537C20.6828 27.9294 18.3951 27.9294 16.1675 28.3537C15.8464 28.4464 15.56 28.632 15.3443 28.8873C13.9266 30.4472 13.4185 32.4442 12.8849 34.3852C12.408 36.06 11.339 37.5046 9.8768 38.4503C11.5435 36.4533 11.9601 34.1058 11.8788 31.6108C11.869 30.0921 12.2673 28.5987 13.0323 27.2867C13.1921 26.941 13.4392 26.643 13.7493 26.422C14.0594 26.201 14.4217 26.0647 14.8006 26.0265C15.9185 25.93 17.0465 25.8639 18.1746 25.8487C19.8819 25.8487 21.5943 25.8487 23.3016 25.8487C24.0511 25.801 24.7931 26.0219 25.3946 26.4716C25.9961 26.9213 26.4178 27.5705 26.5841 28.3029C26.9088 29.1394 27.1174 30.0165 27.2041 30.9096C27.26 33.557 27.3413 36.1383 29.1096 38.3283Z" fill="#747759"/>
<path d="M21.3402 24.8781C22.2396 24.37 21.8483 23.8009 21.4926 23.2521C21.2414 22.9202 21.0741 22.5324 21.0051 22.1219C20.936 21.7113 20.9673 21.2902 21.0963 20.8944C21.2742 20.3405 21.0557 19.6393 20.9286 19.0194C20.8267 18.7235 20.821 18.4029 20.9123 18.1036C21.0035 17.8043 21.1871 17.5414 21.4368 17.3527C23.6725 18.9635 25.451 17.5763 27.387 16.2653C27.6817 16.8547 28.1441 17.373 28.1746 17.9167C28.3067 20.4574 27.9459 22.8354 26.0862 24.7663C25.8436 25.0691 25.5102 25.2859 25.1351 25.3847C24.76 25.4835 24.363 25.4591 24.0028 25.3151C23.1278 25.1016 22.2376 24.9555 21.3402 24.8781Z" fill="#747759"/>
<path d="M11.8381 16.3567C13.647 17.5559 15.4255 18.9634 17.6663 17.3729C17.9224 17.5503 18.1116 17.8083 18.2037 18.1058C18.2959 18.4034 18.2855 18.7232 18.1744 19.0142C17.9323 19.9056 17.9148 20.8431 18.1236 21.7429C18.2303 22.251 17.834 22.8811 17.5342 23.379C17.1785 23.9583 17.0769 24.4258 17.6663 24.8577C16.5383 25.0813 15.4305 25.3353 14.3076 25.4929C13.9669 25.4712 13.6439 25.333 13.3929 25.1016C11.9397 24.0345 11.3604 22.4542 11.0657 20.7774C10.9301 20.0088 10.8554 19.2306 10.8421 18.4502C10.8334 18.0477 10.9189 17.6488 11.0918 17.2853C11.2648 16.9218 11.5203 16.6038 11.8381 16.3567Z" fill="#747759"/>
<path d="M27.6867 11.2856L29.2974 10.9401C30.2148 12.5693 30.8666 14.3343 31.2283 16.1687C31.5891 17.9015 31.8686 19.6545 32.3462 21.3517C32.9407 23.435 33.7893 25.4167 35.9031 26.4685C35.1218 26.4202 34.3619 26.1941 33.6812 25.8076C33.0005 25.421 32.417 24.8841 31.9753 24.2379C29.7584 21.3069 28.424 17.8043 28.1287 14.1413C28.0576 13.1962 27.8391 12.2511 27.6867 11.2856Z" fill="#747759"/>
<path d="M3.24554 26.4684C4.95795 25.5945 5.89291 24.0904 6.42644 22.4034C6.97787 20.5668 7.42573 18.7008 7.76791 16.814C8.13259 14.771 8.8186 12.7988 9.80043 10.9705L11.6602 11.3262C10.7303 12.6575 11.0962 14.2123 10.8269 15.6605C10.3079 18.7666 9.06122 21.7058 7.18864 24.2378C6.7371 24.8779 6.14927 25.4099 5.46746 25.7957C4.78564 26.1814 4.0268 26.4111 3.24554 26.4684Z" fill="#747759"/>
<path d="M2.25983 18.5315C4.26187 17.937 5.24256 16.5498 5.81675 14.7104C6.26391 13.186 6.83301 11.7124 7.34114 10.2134L9.25171 10.4522C8.43362 12.439 7.72732 14.4919 6.75171 16.377C5.96411 17.9014 4.64297 18.9177 2.73747 18.7551C2.64978 18.7519 2.56279 18.7382 2.47833 18.7144C2.42752 18.6992 2.39195 18.6484 2.25983 18.5315Z" fill="#747759"/>
<path d="M29.9887 10.4421L31.7671 10.2134C32.2397 11.5244 32.7834 12.8252 33.1747 14.1819C33.7336 16.2144 34.6432 17.8862 37.0314 18.5874C35.7001 18.9634 34.6533 18.7601 33.8962 18.0183C33.0116 17.193 32.2728 16.224 31.7112 15.1524C31.0496 13.6157 30.4745 12.0431 29.9887 10.4421Z" fill="#747759"/>
<path d="M22.2142 7.88616L19.5719 12.8303L16.9296 7.92173C18.1441 6.8699 20.7914 6.84449 22.2142 7.88616ZM18.8046 8.52132L19.5668 9.97457L20.3239 8.52132H18.8046Z" fill="#747759"/>
<path d="M23.703 10.0102L23.9266 8.99395C23.3524 8.99395 22.9663 9.9035 22.199 9.03968C23.1695 7.70838 24.1502 6.32119 25.1766 4.97464C25.3954 4.70601 25.6793 4.49778 26.0012 4.36971C26.3232 4.24165 26.6725 4.19801 27.0161 4.24293C27.9296 4.22158 28.8402 4.12984 29.7396 3.96854C28.7234 4.93399 27.9358 5.92993 26.4571 5.77241C25.7406 5.6911 25.5984 6.28054 25.3037 6.78867L26.5384 6.14334C25.9591 7.42383 25.5222 8.4909 24.9785 9.47667C24.8311 9.76631 24.2518 9.81204 23.703 10.0102Z" fill="#747759"/>
<path d="M9.47542 4.07531C10.6441 4.14137 11.762 4.18202 12.8697 4.27856C13.1246 4.33434 13.3577 4.46325 13.5405 4.6495C15.0039 5.89442 15.9236 7.52551 16.7925 9.19218C16.1472 9.8934 15.7762 9.07531 15.2376 9.00925L15.3189 9.80194C14.5923 9.9747 14.1756 9.80194 13.9114 9.00417C13.5192 8.02958 13.0555 7.08528 12.5242 6.17897L13.7894 6.74299C13.4998 6.17389 13.2407 5.72673 12.4073 5.79787C11.0964 5.87409 10.2935 4.92897 9.47542 4.07531Z" fill="#747759"/>
<path d="M19.5668 1.52588e-05C20.3945 1.32466 21.1395 2.69924 21.7975 4.11587C22.0312 4.70022 21.6399 5.53355 21.5281 6.30591C20.2578 6.30591 19.1399 6.30591 18.022 6.30591C17.9548 6.30283 17.8892 6.28369 17.8309 6.2501C17.7726 6.21651 17.7231 6.16944 17.6867 6.11282C17.4479 5.31506 16.8991 4.58843 17.4987 3.65855C18.2202 2.53558 18.8147 1.34148 19.5668 1.52588e-05ZM19.7954 1.85469H19.3178C18.9603 2.76745 18.6633 3.70274 18.4285 4.65449C18.2761 5.47766 18.9722 5.48274 19.582 5.49798C20.1918 5.51323 20.8676 5.41668 20.7101 4.62908C20.4653 3.69383 20.1598 2.77555 19.7954 1.8801V1.85469Z" fill="#747759"/>
<path d="M24.7852 38.0589C24.7689 37.6574 24.7092 37.2587 24.6074 36.8699C24.1907 35.8537 23.7131 34.8831 23.2761 33.8821C22.8629 33.038 22.5114 32.1652 22.2243 31.2703C22.1175 30.8841 22.4173 30.3862 22.5342 29.9238C25.1612 30.8435 25.6135 35.2388 24.7852 38.0589Z" fill="#747759"/>
<path d="M14.2773 37.8964C13.5303 34.6901 14.074 30.9756 16.4063 29.9594C16.6738 30.2004 16.8603 30.5182 16.9403 30.8693C17.0204 31.2204 16.99 31.5876 16.8535 31.9208C16.6819 32.4422 16.4499 32.9419 16.1624 33.4096C15.7712 34.1159 15.258 34.7663 14.9378 35.5031C14.665 36.2854 14.4444 37.0849 14.2773 37.8964Z" fill="#747759"/>
<path d="M32.4428 18.1707C33.6165 18.8872 34.7243 19.3801 35.5779 20.1575C36.0861 20.5996 36.2283 21.4838 36.3706 22.1901C36.4486 22.9125 36.4588 23.6406 36.4011 24.3649C34.476 22.7564 33.0937 20.5934 32.4428 18.1707Z" fill="#747759"/>
<path d="M2.52926 24.1972C2.71727 23.0539 2.88495 21.9056 3.11361 20.7673C3.18498 20.4886 3.35459 20.245 3.59125 20.0814C4.55162 19.4564 5.53739 18.8771 6.67053 18.186C6.03602 20.5467 4.7192 22.6678 2.88495 24.2836L2.52926 24.1972Z" fill="#747759"/>
<path d="M19.572 28.6535C20.146 28.6128 20.7224 28.623 21.2946 28.684C21.5944 28.7399 21.8383 29.0905 22.1076 29.3141C21.8993 29.5174 21.696 29.8934 21.4775 29.8985C20.197 29.9544 18.9114 29.9493 17.631 29.8985C17.4175 29.8985 17.2244 29.5123 17.0212 29.309C17.2651 29.0956 17.4887 28.745 17.758 28.6993C18.3612 28.645 18.9676 28.6365 19.572 28.6739V28.6535Z" fill="#747759"/>
<path d="M17.138 6.45323C16.6299 6.96136 16.3047 6.90547 15.9795 6.45323C15.7394 6.08526 15.46 5.7445 15.1462 5.43697C13.9012 4.39023 14.1604 3.19104 14.7905 1.7327C15.6136 3.40445 16.3758 4.92884 17.138 6.45323Z" fill="#747759"/>
<path d="M22.0109 6.45323C22.7426 4.96271 23.493 3.43832 24.262 1.88006C24.6391 2.33012 24.8458 2.89857 24.8458 3.48575C24.8458 4.07293 24.6391 4.64138 24.262 5.09144C23.8961 5.54368 23.4998 5.96542 23.1542 6.42782C22.8087 6.89022 22.4733 6.96136 22.0109 6.45323Z" fill="#747759"/>
<path d="M13.1898 15.8791C15.0445 15.1017 16.3606 15.371 17.2193 16.7328C16.904 16.9577 16.5455 17.1147 16.1663 17.1937C15.7872 17.2727 15.3958 17.272 15.0169 17.1918C14.638 17.1115 14.28 16.9534 13.9654 16.7274C13.6509 16.5014 13.3868 16.2126 13.1898 15.8791Z" fill="#747759"/>
<path d="M21.8839 16.7786C22.7833 15.3965 24.1501 15.1068 25.9489 15.8792C25.2528 17.2257 23.3676 17.6627 21.8839 16.7786Z" fill="#747759"/>
<path d="M6.1115 5.94516C6.70733 5.94554 7.28575 6.14613 7.75388 6.51474C8.222 6.88334 8.55268 7.39856 8.69281 7.97768C7.13285 8.36894 6.22837 7.6474 6.1115 5.94516Z" fill="#747759"/>
<path d="M30.3495 8.04887C30.5373 7.47241 30.8831 6.96017 31.3475 6.57035C31.8118 6.18053 32.3762 5.92874 32.9765 5.84359C33.0273 7.53058 32.133 8.2877 30.3495 8.04887Z" fill="#747759"/>
<path d="M8.66215 5.53858C9.22957 5.75386 9.73171 6.11214 10.1199 6.57865C10.5081 7.04517 10.7691 7.60408 10.8776 8.20118C9.17536 8.07923 8.49446 7.26622 8.66215 5.53858Z" fill="#747759"/>
<path d="M28.2762 8.24701C28.5963 6.9462 29.2112 6.02649 30.4459 5.56917C30.7305 7.12405 30.075 7.97771 28.2762 8.24701Z" fill="#747759"/>
<path d="M28.2254 8.91253C28.7362 8.6121 29.3247 8.47007 29.9163 8.50445C30.5079 8.53882 31.076 8.74805 31.5486 9.10562C31.32 9.31576 31.0515 9.47781 30.759 9.58214C30.4665 9.68646 30.1561 9.73094 29.8461 9.71293C29.5361 9.69492 29.2329 9.61478 28.9545 9.47729C28.6761 9.33979 28.4281 9.14773 28.2254 8.91253Z" fill="#747759"/>
<path d="M13.4083 9.07016C12.0363 9.24801 10.9337 8.435 11.1979 6.89028C11.7141 7.04975 12.1844 7.33105 12.5691 7.71044C12.9538 8.08984 13.2416 8.55619 13.4083 9.07016Z" fill="#747759"/>
<path d="M7.55448 9.21746C8.57074 8.37396 9.55144 8.28758 10.8014 8.89225C10.2171 9.86786 9.0179 10.0101 7.55448 9.21746Z" fill="#747759"/>
<path d="M25.7355 9.07008C25.8916 8.56436 26.169 8.10453 26.5437 7.73075C26.9184 7.35696 27.3788 7.08059 27.8849 6.92577C28.1898 8.31804 27.3971 9.14121 25.7355 9.07008Z" fill="#747759"/>
<path d="M25.9795 9.62395C26.4426 9.40467 26.9658 9.34657 27.4658 9.4589C27.9657 9.57124 28.4138 9.84754 28.7386 10.2439C28.5188 10.3909 28.2713 10.4917 28.0113 10.5402C27.7513 10.5887 27.4841 10.5837 27.2261 10.5258C26.968 10.4678 26.7244 10.3579 26.5101 10.2029C26.2958 10.0479 26.1153 9.85091 25.9795 9.62395Z" fill="#747759"/>
<path d="M10.3341 10.2744C11.1064 9.33947 12.0769 9.32422 13.1491 9.52747C12.6461 10.5539 11.5688 10.8334 10.3341 10.2744Z" fill="#747759"/>
<path d="M4.20101 14.182C3.88089 14.3852 3.53028 14.7867 3.25081 14.7409C2.97134 14.6952 2.68678 14.2328 2.41239 13.9584C2.69694 13.6942 2.95609 13.247 3.26605 13.2064C3.57601 13.1657 3.88597 13.5672 4.20609 13.7958L4.20101 14.182Z" fill="#747759"/>
<path d="M35.8982 12.7743C36.2996 13.3536 36.7163 13.6991 36.6807 13.9837C36.6207 14.1661 36.5149 14.3301 36.3735 14.46C36.232 14.5899 36.0597 14.6813 35.8728 14.7256C35.5984 14.7256 35.1411 14.253 35.1106 13.9532C35.0801 13.6534 35.4866 13.3333 35.8982 12.7743Z" fill="#747759"/>
<path d="M19.5616 34.9493C20.3455 35.8386 20.7823 36.9809 20.7916 38.1664C20.8009 39.3519 20.3822 40.501 19.6124 41.4025C17.9559 40.1271 17.9051 36.7582 19.5616 34.9493Z" fill="#747759"/>
<path d="M59.606 32.5946C60.6869 32.5946 61.5118 31.9262 62.0807 30.5893C62.6638 29.2524 62.9553 27.0479 62.9553 23.9759V21.8213C62.9553 19.5742 62.6851 17.839 62.1447 16.6159C61.6042 15.3928 60.8362 14.7813 59.8407 14.7813H58.2407V32.5946H59.606ZM60.2673 36.2426C59.7553 36.2426 58.9589 36.2142 57.878 36.1573C56.8113 36.1146 55.7091 36.0933 54.5713 36.0933H51.1793V11.0906H54.5713C55.5242 11.0764 56.5624 11.0408 57.686 10.9839C58.8096 10.927 59.6913 10.8986 60.3313 10.8986C63.958 10.8986 66.5536 11.9155 68.118 13.9493C69.6967 15.983 70.486 18.9484 70.486 22.8453C70.486 24.1679 70.3936 25.4266 70.2087 26.6213C70.038 27.8159 69.7109 29.0177 69.2273 30.2266C68.7438 31.4213 68.1322 32.4524 67.3927 33.3199C66.6531 34.1875 65.6718 34.8915 64.4487 35.4319C63.2256 35.9724 61.8318 36.2426 60.2673 36.2426ZM72.5558 36.0933V11.0906H79.8305V36.0933H72.5558ZM89.9738 26.4293C89.9738 28.7902 90.1516 30.4328 90.5072 31.3573C90.8769 32.2817 91.5169 32.7439 92.4272 32.7439C93.0956 32.7439 93.6005 32.5804 93.9418 32.2533C94.2832 31.9119 94.5392 31.2222 94.7098 30.1839C94.8947 29.1315 94.9872 27.5599 94.9872 25.4693V20.3279C94.9872 18.2942 94.7881 16.7795 94.3898 15.7839C93.9916 14.7884 93.3374 14.2906 92.4272 14.2906C91.5169 14.2906 90.8769 14.7813 90.5072 15.7626C90.1516 16.7297 89.9738 18.5004 89.9738 21.0746V26.4293ZM91.9792 36.5413C90.7987 36.5413 89.7321 36.4346 88.7792 36.2213C87.8405 36.0079 87.0298 35.7093 86.3472 35.3253C85.6645 34.9413 85.0672 34.4506 84.5552 33.8533C84.0574 33.2559 83.6521 32.6159 83.3392 31.9333C83.0405 31.2506 82.7987 30.4542 82.6138 29.5439C82.4289 28.6195 82.3009 27.7022 82.2298 26.7919C82.1587 25.8675 82.1232 24.8293 82.1232 23.6773C82.1232 21.9706 82.2085 20.4844 82.3792 19.2186C82.5641 17.9528 82.8983 16.7653 83.3818 15.6559C83.8654 14.5324 84.5054 13.6222 85.3018 12.9253C86.1125 12.2284 87.1507 11.6808 88.4165 11.2826C89.6965 10.8844 91.2041 10.6853 92.9392 10.6853C94.1338 10.6853 95.2076 10.799 96.1605 11.0266C97.1134 11.2399 97.9312 11.5386 98.6138 11.9226C99.2965 12.3066 99.8867 12.8044 100.385 13.4159C100.897 14.0275 101.302 14.6817 101.601 15.3786C101.913 16.0613 102.162 16.8648 102.347 17.7893C102.532 18.7137 102.66 19.631 102.731 20.5413C102.802 21.4515 102.838 22.4826 102.838 23.6346C102.838 25.3413 102.745 26.8275 102.56 28.0933C102.376 29.359 102.041 30.5466 101.558 31.6559C101.074 32.751 100.427 33.647 99.6165 34.3439C98.8058 35.0266 97.7605 35.567 96.4805 35.9653C95.2147 36.3493 93.7143 36.5413 91.9792 36.5413ZM111.838 36.0933H105.054V13.0959L104.009 11.0906H111.86L115.785 19.1973L119.54 27.2826L118.494 17.7893V11.0906H125.3V36.0933H118.793L113.716 26.2159L110.58 20.0293L111.838 28.2213V36.0933ZM132.766 36.0933V28.2853L125.683 11.0906H133.769L135.966 17.5333L137.438 22.8026L138.654 17.5333L140.318 11.0906H146.675L140.425 28.1573V36.0933H132.766ZM154.437 36.5413C153.342 36.5413 152.318 36.4417 151.365 36.2426C150.427 36.0577 149.637 35.8088 148.997 35.4959C148.357 35.183 147.831 34.8844 147.418 34.5999C147.02 34.3155 146.686 34.031 146.416 33.7466L146.949 28.5626C147.532 29.3448 148.314 30.0275 149.296 30.6106C150.277 31.1795 151.337 31.4639 152.474 31.4639C153.612 31.4639 154.43 31.343 154.928 31.1013C155.44 30.8595 155.696 30.4186 155.696 29.7786C155.696 29.0959 155.404 28.5128 154.821 28.0293C154.252 27.5457 153.264 26.9626 151.856 26.2799C151.344 26.0239 150.91 25.7964 150.555 25.5973C150.199 25.3839 149.723 25.0426 149.125 24.5733C148.542 24.0897 148.066 23.5919 147.696 23.0799C147.326 22.5537 146.999 21.8853 146.714 21.0746C146.43 20.2497 146.288 19.3679 146.288 18.4293C146.288 13.3519 149.154 10.8133 154.885 10.8133C155.795 10.8133 156.649 10.9128 157.445 11.1119C158.256 11.2968 158.889 11.503 159.344 11.7306C159.799 11.9582 160.211 12.2284 160.581 12.5413C160.965 12.8399 161.207 13.0533 161.306 13.1813C161.406 13.295 161.477 13.3875 161.52 13.4586L160.453 17.5759C159.898 16.9217 159.202 16.4382 158.363 16.1253C157.538 15.7982 156.748 15.6346 155.995 15.6346C154.174 15.6346 153.264 16.2035 153.264 17.3413C153.264 17.6399 153.321 17.9102 153.434 18.1519C153.548 18.3937 153.733 18.6142 153.989 18.8133C154.245 19.0124 154.48 19.183 154.693 19.3253C154.921 19.4675 155.227 19.6453 155.611 19.8586C156.009 20.0577 156.307 20.2213 156.507 20.3493C158.583 21.231 160.105 22.2764 161.072 23.4853C162.053 24.6942 162.544 26.1662 162.544 27.9013C162.544 30.7173 161.847 32.8648 160.453 34.3439C159.074 35.8088 157.068 36.5413 154.437 36.5413ZM174.468 36.5413C173.003 36.5413 171.702 36.399 170.564 36.1146C169.441 35.8302 168.516 35.4462 167.791 34.9626C167.08 34.479 166.49 33.8817 166.02 33.1706C165.565 32.4453 165.245 31.6844 165.06 30.8879C164.875 30.0915 164.783 29.2097 164.783 28.2426V11.0906H172.378V27.2826C172.378 29.0888 172.563 30.3333 172.932 31.0159C173.316 31.6844 173.871 32.0186 174.596 32.0186C174.995 32.0186 175.343 31.9546 175.642 31.8266C175.94 31.6844 176.218 31.4497 176.474 31.1226C176.73 30.7813 176.922 30.2977 177.05 29.6719C177.192 29.0319 177.263 28.2568 177.263 27.3466V11.0906H184.004V28.3706C184.004 29.3235 183.919 30.1839 183.748 30.9519C183.592 31.7199 183.293 32.4666 182.852 33.1919C182.426 33.903 181.857 34.5004 181.146 34.9839C180.449 35.4533 179.531 35.8302 178.394 36.1146C177.27 36.399 175.962 36.5413 174.468 36.5413ZM194.312 36.5413C193.217 36.5413 192.193 36.4417 191.24 36.2426C190.302 36.0577 189.512 35.8088 188.872 35.4959C188.232 35.183 187.706 34.8844 187.293 34.5999C186.895 34.3155 186.561 34.031 186.291 33.7466L186.824 28.5626C187.407 29.3448 188.189 30.0275 189.171 30.6106C190.152 31.1795 191.212 31.4639 192.349 31.4639C193.487 31.4639 194.305 31.343 194.803 31.1013C195.315 30.8595 195.571 30.4186 195.571 29.7786C195.571 29.0959 195.279 28.5128 194.696 28.0293C194.127 27.5457 193.139 26.9626 191.731 26.2799C191.219 26.0239 190.785 25.7964 190.43 25.5973C190.074 25.3839 189.598 25.0426 189 24.5733C188.417 24.0897 187.941 23.5919 187.571 23.0799C187.201 22.5537 186.874 21.8853 186.589 21.0746C186.305 20.2497 186.163 19.3679 186.163 18.4293C186.163 13.3519 189.029 10.8133 194.76 10.8133C195.67 10.8133 196.524 10.9128 197.32 11.1119C198.131 11.2968 198.764 11.503 199.219 11.7306C199.674 11.9582 200.086 12.2284 200.456 12.5413C200.84 12.8399 201.082 13.0533 201.181 13.1813C201.281 13.295 201.352 13.3875 201.395 13.4586L200.328 17.5759C199.773 16.9217 199.077 16.4382 198.238 16.1253C197.413 15.7982 196.623 15.6346 195.87 15.6346C194.049 15.6346 193.139 16.2035 193.139 17.3413C193.139 17.6399 193.196 17.9102 193.309 18.1519C193.423 18.3937 193.608 18.6142 193.864 18.8133C194.12 19.0124 194.355 19.183 194.568 19.3253C194.796 19.4675 195.102 19.6453 195.486 19.8586C195.884 20.0577 196.182 20.2213 196.382 20.3493C198.458 21.231 199.98 22.2764 200.947 23.4853C201.928 24.6942 202.419 26.1662 202.419 27.9013C202.419 30.7173 201.722 32.8648 200.328 34.3439C198.949 35.8088 196.943 36.5413 194.312 36.5413Z" fill="#747759"/>
</svg>
