<svg width="204" height="51" viewBox="0 0 204 51" fill="none" xmlns="http://www.w3.org/2000/svg">
<path d="M7.79854 40.1699C8.56073 41.0998 9.32293 42.05 10.1105 43.0053H10.3646C10.3646 40.5968 12.3057 39.1435 13.0933 36.9941C13.4417 38.1275 13.4924 39.3314 13.2406 40.4901C13.1352 41.0904 12.9892 41.6829 12.8036 42.2634C12.1939 44.296 12.5496 45.424 14.2416 46.7045C14.569 46.9224 14.8489 47.2041 15.0648 47.5328C14.7498 47.3498 14.4246 47.1821 14.1197 46.9891C8.02212 43.0714 4.24671 37.4515 2.06174 30.6679C0.230354 24.8947 -0.390647 18.8058 0.237553 12.7817C0.293448 12.1923 0.486536 11.9789 1.08613 11.9941C2.68166 12.0297 4.27719 11.9941 5.95402 11.9941C5.88289 12.8173 5.36459 12.9545 4.765 12.9596C3.60646 12.9596 2.45301 12.9596 1.20808 12.9596C0.757695 18.5127 1.27346 24.1019 2.73248 29.4789L6.70606 27.5836C6.27194 29.0882 5.3382 30.4001 4.0587 31.3031C3.94942 31.3515 3.85234 31.4238 3.77455 31.5145C3.69676 31.6053 3.64022 31.7123 3.60906 31.8277C3.57789 31.9431 3.57289 32.064 3.59442 32.1816C3.61595 32.2992 3.66346 32.4105 3.73349 32.5073C4.19099 33.6173 4.72585 34.6938 5.3341 35.7289C5.40524 35.2563 5.46114 34.7787 5.54752 34.3061C5.7483 33.2173 6.18721 32.1862 6.83284 31.2867C7.47848 30.3872 8.3149 29.6415 9.28228 29.1029C10.5831 28.3153 10.8067 27.5785 10.4967 26.1811L8.09834 29.108L7.77313 28.9301C7.54428 27.7806 7.724 26.5872 8.28126 25.5561C8.87578 24.5399 9.53635 23.5643 10.0394 22.7767C10.7203 23.7929 11.5231 24.987 12.2904 26.1913C12.4333 26.4335 12.4989 26.7136 12.4784 26.9941C12.4437 27.6241 12.2731 28.239 11.9784 28.7968C11.6837 29.3546 11.2719 29.8421 10.7711 30.2258C10.1817 30.6933 9.577 31.1506 8.95708 31.5775C8.438 31.9058 8.00008 32.3475 7.67621 32.8694C7.35234 33.3913 7.15095 33.9798 7.08716 34.5907C6.96013 35.9118 6.97537 37.2482 6.97029 38.5795C7.02802 38.8922 7.13432 39.194 7.28533 39.4738C8.64204 37.9088 9.12476 36.1964 8.70301 34.4281C8.35749 32.9596 9.21114 32.3092 9.9835 31.4555C10.9439 33.8132 10.1004 37.2025 7.79854 40.1699Z" fill="white"/>
<path d="M37.9308 13.1221C36.2743 12.614 34.4806 13.6303 32.885 12.1872C33.0894 12.1106 33.3003 12.0528 33.5151 12.0144C35.0395 12.0144 36.5893 11.9839 38.1289 12.0144C38.3678 12.0144 38.7895 12.3295 38.8098 12.5226C39.7295 23.2339 37.9613 33.239 30.9287 41.8061C29.1608 43.9211 27.0643 45.738 24.7194 47.1872C24.505 47.3353 24.2478 47.4085 23.9877 47.3955C24.257 47.1974 24.4958 46.9789 24.7956 46.801C26.945 45.4596 26.7214 44.0724 26.32 42.1516C26.0405 40.7187 25.9694 39.24 25.8118 37.7817C25.8378 37.482 25.9009 37.1867 25.9999 36.9026C26.7875 39.1486 28.7742 40.5612 28.7438 43.0002L28.9826 43.0409L31.3556 40.1598C28.9064 37.6902 28.4846 34.7431 29.0131 31.3488C29.882 32.3142 30.761 32.9341 30.4206 34.3976C29.9988 36.1862 30.4612 37.9037 31.818 39.4789C31.969 39.1957 32.0801 38.8931 32.1482 38.5795C32.1838 37.5378 32.2143 36.4911 32.1482 35.4494C32.1349 34.6022 31.904 33.7726 31.4778 33.0403C31.0516 32.308 30.4443 31.6976 29.7143 31.2675C29.2281 30.9554 28.7598 30.6161 28.3118 30.2512C27.8207 29.8623 27.4177 29.3736 27.1295 28.8174C26.8413 28.2612 26.6745 27.6501 26.6401 27.0246C26.627 26.7446 26.7016 26.4675 26.8535 26.2319C27.6208 25.0226 28.4135 23.8285 29.0791 22.8173C29.5873 23.61 30.2529 24.6161 30.8728 25.6476C31.4927 26.6791 31.4369 27.8122 31.3403 29.0978C30.1445 28.4585 29.2363 27.3886 28.7997 26.1049C28.1747 27.2024 28.5049 28.3356 29.7346 29.0876C31.5436 30.1852 32.885 31.6283 33.4287 33.7268C33.5592 34.4339 33.7531 35.1277 34.008 35.8L35.695 31.8315C34.1269 30.8663 32.9583 29.3694 32.4023 27.614L36.4064 29.5093C37.8537 24.1754 38.3694 18.6316 37.9308 13.1221Z" fill="white"/>
<path d="M24.7193 44.8651L22.9714 43.7777C22.1321 45.3831 21.6224 47.1401 21.4724 48.9454L20.6035 48.1324C20.3646 49.0978 20.451 50.1649 19.5516 50.9068C18.637 50.1598 18.7031 49.0978 18.51 48.1578L17.8087 48.8438C17.2701 47.0806 16.7518 45.3732 16.2437 43.6913L14.2671 44.9261L14.0791 44.7076C15.0953 43.61 15.2986 42.2381 15.4663 40.8509C15.6187 39.5856 15.7407 38.3102 15.9337 37.0501C16.0858 36.0897 16.4352 35.1713 16.9599 34.3527C17.4847 33.5341 18.1734 32.8331 18.9825 32.294C19.1307 32.1576 19.3248 32.0819 19.5262 32.0819C19.7277 32.0819 19.9217 32.1576 20.0699 32.294C20.8904 32.8422 21.586 33.5573 22.1113 34.3926C22.6367 35.2279 22.9799 36.1646 23.1187 37.1415C23.3118 38.5491 23.3982 39.9769 23.6675 41.3692C23.9571 42.5277 24.3738 43.6253 24.7193 44.8651ZM20.3545 45.2869C20.5882 44.0115 20.8321 42.8631 20.9947 41.7299C21.2007 40.6276 21.2994 39.5079 21.2894 38.3865C21.2134 36.8521 20.5938 35.3949 19.5415 34.2757C19.3902 34.4359 19.2493 34.6056 19.1197 34.7838C18.4546 35.7725 18.0113 36.8934 17.8201 38.0696C17.6289 39.2457 17.6943 40.4494 18.012 41.5978C18.2661 42.6598 18.3677 43.7574 18.5201 44.8397C18.5201 44.9871 18.5862 45.1293 18.6522 45.4088L19.5161 44.235L20.3545 45.2869Z" fill="white"/>
<path d="M19.5668 15.1192C20.2476 13.986 20.7863 12.9596 21.457 12.0247C21.7589 11.6342 22.199 11.3742 22.6867 11.298C23.5832 11.2773 24.4797 11.3403 25.3645 11.486C25.7114 11.521 26.0394 11.6611 26.3046 11.8875C27.641 13.2188 27.8696 14.4993 25.9133 15.3224C24.9856 15.6203 24.0083 15.7325 23.0373 15.6527C22.7873 15.6072 22.5295 15.6358 22.2956 15.7351C22.0617 15.8345 21.862 16.0001 21.7212 16.2117C21.4062 16.7198 21.0556 17.1619 20.7456 17.6497C20.526 17.9571 20.3748 18.308 20.302 18.6787C20.2293 19.0494 20.2367 19.4314 20.3239 19.7991C20.6152 20.8013 20.5742 21.8709 20.207 22.8478C20.146 22.9952 20.2883 23.2594 20.3899 23.4474C20.6796 23.9556 20.9946 24.4637 21.2995 24.9718L20.7913 24.6161C20.5305 25.1421 20.2369 25.6512 19.9123 26.1405C19.8057 26.1992 19.6859 26.23 19.5642 26.23C19.4425 26.23 19.3228 26.1992 19.2161 26.1405C18.9038 25.6802 18.622 25.1998 18.3726 24.7025L17.8239 25.0226L18.9773 22.9901C18.4387 21.9739 18.5911 20.7188 18.8503 19.4332C19.0637 18.3814 18.3422 17.6395 17.8645 16.8265C17.3869 16.0135 16.7466 15.4545 15.5728 15.7035C14.7416 15.7794 13.9045 15.6448 13.1389 15.3123C12.7671 15.2166 12.436 15.004 12.1945 14.7057C11.9529 14.4074 11.8137 14.0393 11.7974 13.6558C11.7974 12.8834 12.6562 11.7045 13.4285 11.5775C14.541 11.4023 15.6662 11.3207 16.7924 11.3336C17.1023 11.3336 17.4987 11.7147 17.7019 12.0196C18.3168 12.9799 18.8808 13.9657 19.5668 15.1192Z" fill="white"/>
<path d="M29.1096 39.2351C27.7466 38.3356 26.7444 36.9844 26.2793 35.419C25.7254 33.4373 25.2325 31.4149 23.7894 29.8296C23.5593 29.5569 23.2533 29.3588 22.9104 29.2605C20.6828 28.8362 18.3951 28.8362 16.1675 29.2605C15.8464 29.3531 15.56 29.5388 15.3443 29.794C13.9266 31.354 13.4185 33.3509 12.8849 35.292C12.408 36.9667 11.339 38.4113 9.8768 39.357C11.5435 37.3601 11.9601 35.0125 11.8788 32.5176C11.869 30.9989 12.2673 29.5054 13.0323 28.1934C13.1921 27.8477 13.4392 27.5497 13.7493 27.3287C14.0594 27.1077 14.4217 26.9714 14.8006 26.9332C15.9185 26.8367 17.0465 26.7706 18.1746 26.7554C19.8819 26.7554 21.5943 26.7554 23.3016 26.7554C24.0511 26.7078 24.7931 26.9286 25.3946 27.3783C25.9961 27.828 26.4178 28.4773 26.5841 29.2097C26.9088 30.0462 27.1174 30.9232 27.2041 31.8164C27.26 34.4637 27.3413 37.045 29.1096 39.2351Z" fill="white"/>
<path d="M21.3402 25.7849C22.2396 25.2767 21.8483 24.7076 21.4926 24.1588C21.2414 23.8269 21.0741 23.4392 21.0051 23.0286C20.936 22.6181 20.9673 22.1969 21.0963 21.8011C21.2742 21.2473 21.0557 20.546 20.9286 19.9261C20.8267 19.6302 20.821 19.3097 20.9123 19.0103C21.0035 18.711 21.1871 18.4482 21.4368 18.2594C23.6725 19.8702 25.451 18.483 27.387 17.1721C27.6817 17.7615 28.1441 18.2798 28.1746 18.8235C28.3067 21.3641 27.9459 23.7422 26.0862 25.6731C25.8436 25.9758 25.5102 26.1926 25.1351 26.2914C24.76 26.3902 24.363 26.3658 24.0028 26.2218C23.1278 26.0083 22.2376 25.8622 21.3402 25.7849Z" fill="white"/>
<path d="M11.8381 17.2634C13.647 18.4626 15.4255 19.8701 17.6663 18.2797C17.9224 18.457 18.1116 18.7151 18.2037 19.0126C18.2959 19.3101 18.2855 19.63 18.1744 19.9209C17.9323 20.8123 17.9148 21.7498 18.1236 22.6496C18.2303 23.1577 17.834 23.7878 17.5342 24.2858C17.1785 24.865 17.0769 25.3325 17.6663 25.7644C16.5383 25.988 15.4305 26.2421 14.3076 26.3996C13.9669 26.3779 13.6439 26.2398 13.3929 26.0083C11.9397 24.9413 11.3604 23.361 11.0657 21.6842C10.9301 20.9155 10.8554 20.1373 10.8421 19.3569C10.8334 18.9545 10.9189 18.5556 11.0918 18.1921C11.2648 17.8286 11.5203 17.5106 11.8381 17.2634Z" fill="white"/>
<path d="M27.6867 12.1923L29.2974 11.8468C30.2148 13.4761 30.8666 15.2411 31.2283 17.0755C31.5891 18.8082 31.8686 20.5613 32.3462 22.2584C32.9407 24.3417 33.7893 26.3234 35.9031 27.3753C35.1218 27.327 34.3619 27.1009 33.6812 26.7143C33.0005 26.3277 32.417 25.7908 31.9753 25.1446C29.7584 22.2137 28.424 18.711 28.1287 15.048C28.0576 14.1029 27.8391 13.1578 27.6867 12.1923Z" fill="white"/>
<path d="M3.24554 27.3752C4.95795 26.5012 5.89291 24.9971 6.42644 23.3101C6.97787 21.4736 7.42573 19.6075 7.76791 17.7207C8.13259 15.6778 8.8186 13.7055 9.80043 11.8772L11.6602 12.2329C10.7303 13.5642 11.0962 15.1191 10.8269 16.5673C10.3079 19.6734 9.06122 22.6126 7.18864 25.1445C6.7371 25.7846 6.14927 26.3167 5.46746 26.7024C4.78564 27.0881 4.0268 27.3179 3.24554 27.3752Z" fill="white"/>
<path d="M2.25983 19.4382C4.26187 18.8437 5.24256 17.4565 5.81675 15.6171C6.26391 14.0927 6.83301 12.6191 7.34114 11.1201L9.25171 11.359C8.43362 13.3457 7.72732 15.3986 6.75171 17.2838C5.96411 18.8081 4.64297 19.8244 2.73747 19.6618C2.64978 19.6586 2.56279 19.645 2.47833 19.6212C2.42752 19.6059 2.39195 19.5551 2.25983 19.4382Z" fill="white"/>
<path d="M29.9887 11.3488L31.7671 11.1201C32.2397 12.4311 32.7834 13.7319 33.1747 15.0886C33.7336 17.1212 34.6432 18.7929 37.0314 19.4941C35.7001 19.8701 34.6533 19.6669 33.8962 18.925C33.0116 18.0997 32.2728 17.1308 31.7112 16.0592C31.0496 14.5224 30.4745 12.9498 29.9887 11.3488Z" fill="white"/>
<path d="M22.2142 8.79289L19.5719 13.737L16.9296 8.82846C18.1441 7.77663 20.7914 7.75123 22.2142 8.79289ZM18.8046 9.42806L19.5668 10.8813L20.3239 9.42806H18.8046Z" fill="white"/>
<path d="M23.703 10.9169L23.9266 9.90069C23.3524 9.90069 22.9663 10.8102 22.199 9.94642C23.1695 8.61512 24.1502 7.22792 25.1766 5.88138C25.3954 5.61275 25.6793 5.40451 26.0012 5.27645C26.3232 5.14838 26.6725 5.10474 27.0161 5.14967C27.9296 5.12832 28.8402 5.03658 29.7396 4.87528C28.7234 5.84073 27.9358 6.83666 26.4571 6.67914C25.7406 6.59784 25.5984 7.18727 25.3037 7.6954L26.5384 7.05008C25.9591 8.33056 25.5222 9.39764 24.9785 10.3834C24.8311 10.673 24.2518 10.7188 23.703 10.9169Z" fill="white"/>
<path d="M9.47542 4.98205C10.6441 5.0481 11.762 5.08876 12.8697 5.1853C13.1246 5.24108 13.3577 5.36999 13.5405 5.55624C15.0039 6.80115 15.9236 8.43225 16.7925 10.0989C16.1472 10.8001 15.7762 9.98205 15.2376 9.91599L15.3189 10.7087C14.5923 10.8814 14.1756 10.7087 13.9114 9.91091C13.5192 8.93632 13.0555 7.99201 12.5242 7.08571L13.7894 7.64973C13.4998 7.08063 13.2407 6.63347 12.4073 6.70461C11.0964 6.78083 10.2935 5.83571 9.47542 4.98205Z" fill="white"/>
<path d="M19.5668 0.906752C20.3945 2.23139 21.1395 3.60597 21.7975 5.02261C22.0312 5.60696 21.6399 6.44029 21.5281 7.21265C20.2578 7.21265 19.1399 7.21265 18.022 7.21265C17.9548 7.20956 17.8892 7.19043 17.8309 7.15684C17.7726 7.12324 17.7231 7.07617 17.6867 7.01956C17.4479 6.22179 16.8991 5.49517 17.4987 4.56529C18.2202 3.44232 18.8147 2.24822 19.5668 0.906752ZM19.7954 2.76143H19.3178C18.9603 3.67419 18.6633 4.60947 18.4285 5.56122C18.2761 6.38439 18.9722 6.38947 19.582 6.40472C20.1918 6.41996 20.8676 6.32342 20.7101 5.53582C20.4653 4.60056 20.1598 3.68228 19.7954 2.78683V2.76143Z" fill="white"/>
<path d="M24.7852 38.9657C24.7689 38.5641 24.7092 38.1655 24.6074 37.7767C24.1907 36.7604 23.7131 35.7899 23.2761 34.7889C22.8629 33.9448 22.5114 33.0719 22.2243 32.1771C22.1175 31.7909 22.4173 31.2929 22.5342 30.8305C25.1612 31.7502 25.6135 36.1456 24.7852 38.9657Z" fill="white"/>
<path d="M14.2773 38.8031C13.5303 35.5968 14.074 31.8824 16.4063 30.8661C16.6738 31.1072 16.8603 31.425 16.9403 31.776C17.0204 32.1271 16.99 32.4943 16.8535 32.8275C16.6819 33.349 16.4499 33.8486 16.1624 34.3163C15.7712 35.0226 15.258 35.673 14.9378 36.4098C14.665 37.1921 14.4444 37.9916 14.2773 38.8031Z" fill="white"/>
<path d="M32.4428 19.0775C33.6165 19.794 34.7243 20.2868 35.5779 21.0643C36.0861 21.5064 36.2283 22.3905 36.3706 23.0968C36.4486 23.8192 36.4588 24.5473 36.4011 25.2716C34.476 23.6632 33.0937 21.5002 32.4428 19.0775Z" fill="white"/>
<path d="M2.52926 25.104C2.71727 23.9607 2.88495 22.8123 3.11361 21.6741C3.18498 21.3953 3.35459 21.1518 3.59125 20.9881C4.55162 20.3631 5.53739 19.7838 6.67053 19.0928C6.03602 21.4535 4.7192 23.5745 2.88495 25.1903L2.52926 25.104Z" fill="white"/>
<path d="M19.572 29.5603C20.146 29.5195 20.7224 29.5297 21.2946 29.5908C21.5944 29.6467 21.8383 29.9973 22.1076 30.2208C21.8993 30.4241 21.696 30.8001 21.4775 30.8052C20.197 30.8611 18.9114 30.856 17.631 30.8052C17.4175 30.8052 17.2244 30.419 17.0212 30.2158C17.2651 30.0024 17.4887 29.6517 17.758 29.606C18.3612 29.5517 18.9676 29.5432 19.572 29.5806V29.5603Z" fill="white"/>
<path d="M17.138 7.35997C16.6299 7.8681 16.3047 7.81221 15.9795 7.35997C15.7394 6.99199 15.46 6.65123 15.1462 6.34371C13.9012 5.29696 14.1604 4.09777 14.7905 2.63944C15.6136 4.31119 16.3758 5.83558 17.138 7.35997Z" fill="white"/>
<path d="M22.0109 7.35997C22.7426 5.86945 23.493 4.34506 24.262 2.7868C24.6391 3.23686 24.8458 3.80531 24.8458 4.39249C24.8458 4.97967 24.6391 5.54812 24.262 5.99818C23.8961 6.45042 23.4998 6.87217 23.1542 7.33456C22.8087 7.79696 22.4733 7.8681 22.0109 7.35997Z" fill="white"/>
<path d="M13.1898 16.7858C15.0445 16.0084 16.3606 16.2777 17.2193 17.6395C16.904 17.8644 16.5455 18.0214 16.1663 18.1004C15.7872 18.1794 15.3958 18.1788 15.0169 18.0985C14.638 18.0183 14.28 17.8601 13.9654 17.6341C13.6509 17.4082 13.3868 17.1193 13.1898 16.7858Z" fill="white"/>
<path d="M21.8839 17.6853C22.7833 16.3032 24.1501 16.0136 25.9489 16.7859C25.2528 18.1325 23.3676 18.5695 21.8839 17.6853Z" fill="white"/>
<path d="M6.1115 6.8519C6.70733 6.85227 7.28575 7.05287 7.75388 7.42147C8.222 7.79008 8.55268 8.3053 8.69281 8.88442C7.13285 9.27568 6.22837 8.55413 6.1115 6.8519Z" fill="white"/>
<path d="M30.3495 8.95561C30.5373 8.37915 30.8831 7.86691 31.3475 7.47709C31.8118 7.08727 32.3762 6.83548 32.9765 6.75033C33.0273 8.43732 32.133 9.19443 30.3495 8.95561Z" fill="white"/>
<path d="M8.66215 6.44532C9.22957 6.6606 9.73171 7.01887 10.1199 7.48539C10.5081 7.9519 10.7691 8.51082 10.8776 9.10792C9.17536 8.98597 8.49446 8.17296 8.66215 6.44532Z" fill="white"/>
<path d="M28.2762 9.15375C28.5963 7.85294 29.2112 6.93323 30.4459 6.47591C30.7305 8.03079 30.075 8.88445 28.2762 9.15375Z" fill="white"/>
<path d="M28.2254 9.81927C28.7362 9.51884 29.3247 9.37681 29.9163 9.41118C30.5079 9.44556 31.076 9.65479 31.5486 10.0124C31.32 10.2225 31.0515 10.3845 30.759 10.4889C30.4665 10.5932 30.1561 10.6377 29.8461 10.6197C29.5361 10.6017 29.2329 10.5215 28.9545 10.384C28.6761 10.2465 28.4281 10.0545 28.2254 9.81927Z" fill="white"/>
<path d="M13.4083 9.9769C12.0363 10.1547 10.9337 9.34173 11.1979 7.79702C11.7141 7.95649 12.1844 8.23779 12.5691 8.61718C12.9538 8.99657 13.2416 9.46293 13.4083 9.9769Z" fill="white"/>
<path d="M7.55448 10.1242C8.57074 9.2807 9.55144 9.19432 10.8014 9.799C10.2171 10.7746 9.0179 10.9169 7.55448 10.1242Z" fill="white"/>
<path d="M25.7355 9.97682C25.8916 9.4711 26.169 9.01127 26.5437 8.63749C26.9184 8.26371 27.3788 7.98733 27.8849 7.83251C28.1898 9.22478 27.3971 10.048 25.7355 9.97682Z" fill="white"/>
<path d="M25.9795 10.5307C26.4426 10.3114 26.9658 10.2533 27.4658 10.3656C27.9657 10.478 28.4138 10.7543 28.7386 11.1506C28.5188 11.2977 28.2713 11.3985 28.0113 11.4469C27.7513 11.4954 27.4841 11.4905 27.2261 11.4325C26.968 11.3745 26.7244 11.2647 26.5101 11.1097C26.2958 10.9546 26.1153 10.7576 25.9795 10.5307Z" fill="white"/>
<path d="M10.3341 11.1812C11.1064 10.2462 12.0769 10.231 13.1491 10.4342C12.6461 11.4606 11.5688 11.7401 10.3341 11.1812Z" fill="white"/>
<path d="M4.20101 15.0887C3.88089 15.292 3.53028 15.6934 3.25081 15.6477C2.97134 15.6019 2.68678 15.1395 2.41239 14.8651C2.69694 14.6009 2.95609 14.1538 3.26605 14.1131C3.57601 14.0725 3.88597 14.4739 4.20609 14.7025L4.20101 15.0887Z" fill="white"/>
<path d="M35.8982 13.6811C36.2996 14.2603 36.7163 14.6059 36.6807 14.8904C36.6207 15.0728 36.5149 15.2368 36.3735 15.3667C36.232 15.4966 36.0597 15.588 35.8728 15.6323C35.5984 15.6323 35.1411 15.1597 35.1106 14.8599C35.0801 14.5601 35.4866 14.24 35.8982 13.6811Z" fill="white"/>
<path d="M19.5616 35.856C20.3455 36.7454 20.7823 37.8877 20.7916 39.0732C20.8009 40.2587 20.3822 41.4077 19.6124 42.3093C17.9559 41.0339 17.9051 37.665 19.5616 35.856Z" fill="white"/>
<path d="M59.606 33.5013C60.6869 33.5013 61.5118 32.8329 62.0807 31.496C62.6638 30.1591 62.9553 27.9547 62.9553 24.8827V22.728C62.9553 20.4809 62.6851 18.7458 62.1447 17.5227C61.6042 16.2996 60.8362 15.688 59.8407 15.688H58.2407V33.5013H59.606ZM60.2673 37.1493C59.7553 37.1493 58.9589 37.1209 57.878 37.064C56.8113 37.0213 55.7091 37 54.5713 37H51.1793V11.9973H54.5713C55.5242 11.9831 56.5624 11.9476 57.686 11.8907C58.8096 11.8338 59.6913 11.8053 60.3313 11.8053C63.958 11.8053 66.5536 12.8222 68.118 14.856C69.6967 16.8898 70.486 19.8551 70.486 23.752C70.486 25.0747 70.3936 26.3333 70.2087 27.528C70.038 28.7227 69.7109 29.9244 69.2273 31.1333C68.7438 32.328 68.1322 33.3591 67.3927 34.2267C66.6531 35.0942 65.6718 35.7982 64.4487 36.3387C63.2256 36.8791 61.8318 37.1493 60.2673 37.1493ZM72.5558 37V11.9973H79.8305V37H72.5558ZM89.9738 27.336C89.9738 29.6969 90.1516 31.3396 90.5072 32.264C90.8769 33.1884 91.5169 33.6507 92.4272 33.6507C93.0956 33.6507 93.6005 33.4871 93.9418 33.16C94.2832 32.8187 94.5392 32.1289 94.7098 31.0907C94.8947 30.0382 94.9872 28.4667 94.9872 26.376V21.2347C94.9872 19.2009 94.7881 17.6862 94.3898 16.6907C93.9916 15.6951 93.3374 15.1973 92.4272 15.1973C91.5169 15.1973 90.8769 15.688 90.5072 16.6693C90.1516 17.6364 89.9738 19.4071 89.9738 21.9813V27.336ZM91.9792 37.448C90.7987 37.448 89.7321 37.3413 88.7792 37.128C87.8405 36.9147 87.0298 36.616 86.3472 36.232C85.6645 35.848 85.0672 35.3573 84.5552 34.76C84.0574 34.1627 83.6521 33.5227 83.3392 32.84C83.0405 32.1573 82.7987 31.3609 82.6138 30.4507C82.4289 29.5262 82.3009 28.6089 82.2298 27.6987C82.1587 26.7742 82.1232 25.736 82.1232 24.584C82.1232 22.8773 82.2085 21.3911 82.3792 20.1253C82.5641 18.8596 82.8983 17.672 83.3818 16.5627C83.8654 15.4391 84.5054 14.5289 85.3018 13.832C86.1125 13.1351 87.1507 12.5876 88.4165 12.1893C89.6965 11.7911 91.2041 11.592 92.9392 11.592C94.1338 11.592 95.2076 11.7058 96.1605 11.9333C97.1134 12.1467 97.9312 12.4453 98.6138 12.8293C99.2965 13.2133 99.8867 13.7111 100.385 14.3227C100.897 14.9342 101.302 15.5884 101.601 16.2853C101.913 16.968 102.162 17.7716 102.347 18.696C102.532 19.6204 102.66 20.5378 102.731 21.448C102.802 22.3582 102.838 23.3893 102.838 24.5413C102.838 26.248 102.745 27.7342 102.56 29C102.376 30.2658 102.041 31.4533 101.558 32.5627C101.074 33.6578 100.427 34.5538 99.6165 35.2507C98.8058 35.9333 97.7605 36.4738 96.4805 36.872C95.2147 37.256 93.7143 37.448 91.9792 37.448ZM111.838 37H105.054V14.0027L104.009 11.9973H111.86L115.785 20.104L119.54 28.1893L118.494 18.696V11.9973H125.3V37H118.793L113.716 27.1227L110.58 20.936L111.838 29.128V37ZM132.766 37V29.192L125.683 11.9973H133.769L135.966 18.44L137.438 23.7093L138.654 18.44L140.318 11.9973H146.675L140.425 29.064V37H132.766ZM154.437 37.448C153.342 37.448 152.318 37.3484 151.365 37.1493C150.427 36.9644 149.637 36.7156 148.997 36.4027C148.357 36.0898 147.831 35.7911 147.418 35.5067C147.02 35.2222 146.686 34.9378 146.416 34.6533L146.949 29.4693C147.532 30.2516 148.314 30.9342 149.296 31.5173C150.277 32.0862 151.337 32.3707 152.474 32.3707C153.612 32.3707 154.43 32.2498 154.928 32.008C155.44 31.7662 155.696 31.3253 155.696 30.6853C155.696 30.0027 155.404 29.4196 154.821 28.936C154.252 28.4524 153.264 27.8693 151.856 27.1867C151.344 26.9307 150.91 26.7031 150.555 26.504C150.199 26.2907 149.723 25.9493 149.125 25.48C148.542 24.9964 148.066 24.4987 147.696 23.9867C147.326 23.4604 146.999 22.792 146.714 21.9813C146.43 21.1564 146.288 20.2747 146.288 19.336C146.288 14.2587 149.154 11.72 154.885 11.72C155.795 11.72 156.649 11.8196 157.445 12.0187C158.256 12.2036 158.889 12.4098 159.344 12.6373C159.799 12.8649 160.211 13.1351 160.581 13.448C160.965 13.7467 161.207 13.96 161.306 14.088C161.406 14.2018 161.477 14.2942 161.52 14.3653L160.453 18.4827C159.898 17.8284 159.202 17.3449 158.363 17.032C157.538 16.7049 156.748 16.5413 155.995 16.5413C154.174 16.5413 153.264 17.1102 153.264 18.248C153.264 18.5467 153.321 18.8169 153.434 19.0587C153.548 19.3004 153.733 19.5209 153.989 19.72C154.245 19.9191 154.48 20.0898 154.693 20.232C154.921 20.3742 155.227 20.552 155.611 20.7653C156.009 20.9644 156.307 21.128 156.507 21.256C158.583 22.1378 160.105 23.1831 161.072 24.392C162.053 25.6009 162.544 27.0729 162.544 28.808C162.544 31.624 161.847 33.7716 160.453 35.2507C159.074 36.7156 157.068 37.448 154.437 37.448ZM174.468 37.448C173.003 37.448 171.702 37.3058 170.564 37.0213C169.441 36.7369 168.516 36.3529 167.791 35.8693C167.08 35.3858 166.49 34.7884 166.02 34.0773C165.565 33.352 165.245 32.5911 165.06 31.7947C164.875 30.9982 164.783 30.1164 164.783 29.1493V11.9973H172.378V28.1893C172.378 29.9956 172.563 31.24 172.932 31.9227C173.316 32.5911 173.871 32.9253 174.596 32.9253C174.995 32.9253 175.343 32.8613 175.642 32.7333C175.94 32.5911 176.218 32.3564 176.474 32.0293C176.73 31.688 176.922 31.2044 177.05 30.5787C177.192 29.9387 177.263 29.1636 177.263 28.2533V11.9973H184.004V29.2773C184.004 30.2302 183.919 31.0907 183.748 31.8587C183.592 32.6267 183.293 33.3733 182.852 34.0987C182.426 34.8098 181.857 35.4071 181.146 35.8907C180.449 36.36 179.531 36.7369 178.394 37.0213C177.27 37.3058 175.962 37.448 174.468 37.448ZM194.312 37.448C193.217 37.448 192.193 37.3484 191.24 37.1493C190.302 36.9644 189.512 36.7156 188.872 36.4027C188.232 36.0898 187.706 35.7911 187.293 35.5067C186.895 35.2222 186.561 34.9378 186.291 34.6533L186.824 29.4693C187.407 30.2516 188.189 30.9342 189.171 31.5173C190.152 32.0862 191.212 32.3707 192.349 32.3707C193.487 32.3707 194.305 32.2498 194.803 32.008C195.315 31.7662 195.571 31.3253 195.571 30.6853C195.571 30.0027 195.279 29.4196 194.696 28.936C194.127 28.4524 193.139 27.8693 191.731 27.1867C191.219 26.9307 190.785 26.7031 190.43 26.504C190.074 26.2907 189.598 25.9493 189 25.48C188.417 24.9964 187.941 24.4987 187.571 23.9867C187.201 23.4604 186.874 22.792 186.589 21.9813C186.305 21.1564 186.163 20.2747 186.163 19.336C186.163 14.2587 189.029 11.72 194.76 11.72C195.67 11.72 196.524 11.8196 197.32 12.0187C198.131 12.2036 198.764 12.4098 199.219 12.6373C199.674 12.8649 200.086 13.1351 200.456 13.448C200.84 13.7467 201.082 13.96 201.181 14.088C201.281 14.2018 201.352 14.2942 201.395 14.3653L200.328 18.4827C199.773 17.8284 199.077 17.3449 198.238 17.032C197.413 16.7049 196.623 16.5413 195.87 16.5413C194.049 16.5413 193.139 17.1102 193.139 18.248C193.139 18.5467 193.196 18.8169 193.309 19.0587C193.423 19.3004 193.608 19.5209 193.864 19.72C194.12 19.9191 194.355 20.0898 194.568 20.232C194.796 20.3742 195.102 20.552 195.486 20.7653C195.884 20.9644 196.182 21.128 196.382 21.256C198.458 22.1378 199.98 23.1831 200.947 24.392C201.928 25.6009 202.419 27.0729 202.419 28.808C202.419 31.624 201.722 33.7716 200.328 35.2507C198.949 36.7156 196.943 37.448 194.312 37.448Z" fill="white"/>
</svg>
